<svg width="825" height="753" viewBox="0 0 825 753" fill="none" xmlns="http://www.w3.org/2000/svg">
<path d="M23.8203 22.3203H18.8203V27.3203H17.1797V22.3203H12.1797V20.6797H17.1797V15.6797H18.8203V20.6797H23.8203V22.3203Z" fill="#2C3B48"/>
<path d="M61.8203 22.3203H56.8203V27.3203H55.1797V22.3203H50.1797V20.6797H55.1797V15.6797H56.8203V20.6797H61.8203V22.3203Z" fill="#2C3B48"/>
<path d="M99.8203 22.3203H94.8203V27.3203H93.1797V22.3203H88.1797V20.6797H93.1797V15.6797H94.8203V20.6797H99.8203V22.3203Z" fill="#2C3B48"/>
<path d="M137.82 22.3203H132.82V27.3203H131.18V22.3203H126.18V20.6797H131.18V15.6797H132.82V20.6797H137.82V22.3203Z" fill="#2C3B48"/>
<path d="M175.82 22.3203H170.82V27.3203H169.18V22.3203H164.18V20.6797H169.18V15.6797H170.82V20.6797H175.82V22.3203Z" fill="#2C3B48"/>
<path d="M213.82 22.3203H208.82V27.3203H207.18V22.3203H202.18V20.6797H207.18V15.6797H208.82V20.6797H213.82V22.3203Z" fill="#2C3B48"/>
<path d="M251.82 22.3203H246.82V27.3203H245.18V22.3203H240.18V20.6797H245.18V15.6797H246.82V20.6797H251.82V22.3203Z" fill="#2C3B48"/>
<path d="M289.82 22.3203H284.82V27.3203H283.18V22.3203H278.18V20.6797H283.18V15.6797H284.82V20.6797H289.82V22.3203Z" fill="#2C3B48"/>
<path d="M327.82 22.3203H322.82V27.3203H321.18V22.3203H316.18V20.6797H321.18V15.6797H322.82V20.6797H327.82V22.3203Z" fill="#2C3B48"/>
<path d="M365.82 22.3203H360.82V27.3203H359.18V22.3203H354.18V20.6797H359.18V15.6797H360.82V20.6797H365.82V22.3203Z" fill="#2C3B48"/>
<path d="M403.82 22.3203H398.82V27.3203H397.18V22.3203H392.18V20.6797H397.18V15.6797H398.82V20.6797H403.82V22.3203Z" fill="#2C3B48"/>
<path d="M441.82 22.3203H436.82V27.3203H435.18V22.3203H430.18V20.6797H435.18V15.6797H436.82V20.6797H441.82V22.3203Z" fill="#2C3B48"/>
<path d="M479.82 22.3203H474.82V27.3203H473.18V22.3203H468.18V20.6797H473.18V15.6797H474.82V20.6797H479.82V22.3203Z" fill="#2C3B48"/>
<path d="M517.82 22.3203H512.82V27.3203H511.18V22.3203H506.18V20.6797H511.18V15.6797H512.82V20.6797H517.82V22.3203Z" fill="#2C3B48"/>
<path d="M23.8203 58.3203H18.8203V63.3203H17.1797V58.3203H12.1797V56.6797H17.1797V51.6797H18.8203V56.6797H23.8203V58.3203Z" fill="#2C3B48"/>
<path d="M61.8203 58.3203H56.8203V63.3203H55.1797V58.3203H50.1797V56.6797H55.1797V51.6797H56.8203V56.6797H61.8203V58.3203Z" fill="#2C3B48"/>
<path d="M99.8203 58.3203H94.8203V63.3203H93.1797V58.3203H88.1797V56.6797H93.1797V51.6797H94.8203V56.6797H99.8203V58.3203Z" fill="#2C3B48"/>
<path d="M137.82 58.3203H132.82V63.3203H131.18V58.3203H126.18V56.6797H131.18V51.6797H132.82V56.6797H137.82V58.3203Z" fill="#2C3B48"/>
<path d="M175.82 58.3203H170.82V63.3203H169.18V58.3203H164.18V56.6797H169.18V51.6797H170.82V56.6797H175.82V58.3203Z" fill="#2C3B48"/>
<path d="M213.82 58.3203H208.82V63.3203H207.18V58.3203H202.18V56.6797H207.18V51.6797H208.82V56.6797H213.82V58.3203Z" fill="#2C3B48"/>
<path d="M251.82 58.3203H246.82V63.3203H245.18V58.3203H240.18V56.6797H245.18V51.6797H246.82V56.6797H251.82V58.3203Z" fill="#2C3B48"/>
<path d="M289.82 58.3203H284.82V63.3203H283.18V58.3203H278.18V56.6797H283.18V51.6797H284.82V56.6797H289.82V58.3203Z" fill="#2C3B48"/>
<path d="M327.82 58.3203H322.82V63.3203H321.18V58.3203H316.18V56.6797H321.18V51.6797H322.82V56.6797H327.82V58.3203Z" fill="#2C3B48"/>
<path d="M365.82 58.3203H360.82V63.3203H359.18V58.3203H354.18V56.6797H359.18V51.6797H360.82V56.6797H365.82V58.3203Z" fill="#2C3B48"/>
<path d="M403.82 58.3203H398.82V63.3203H397.18V58.3203H392.18V56.6797H397.18V51.6797H398.82V56.6797H403.82V58.3203Z" fill="#2C3B48"/>
<path d="M441.82 58.3203H436.82V63.3203H435.18V58.3203H430.18V56.6797H435.18V51.6797H436.82V56.6797H441.82V58.3203Z" fill="#2C3B48"/>
<path d="M479.82 58.3203H474.82V63.3203H473.18V58.3203H468.18V56.6797H473.18V51.6797H474.82V56.6797H479.82V58.3203Z" fill="#2C3B48"/>
<path d="M517.82 58.3203H512.82V63.3203H511.18V58.3203H506.18V56.6797H511.18V51.6797H512.82V56.6797H517.82V58.3203Z" fill="#2C3B48"/>
<path d="M23.8203 94.3203H18.8203V99.3203H17.1797V94.3203H12.1797V92.6797H17.1797V87.6797H18.8203V92.6797H23.8203V94.3203Z" fill="#2C3B48"/>
<path d="M61.8203 94.3203H56.8203V99.3203H55.1797V94.3203H50.1797V92.6797H55.1797V87.6797H56.8203V92.6797H61.8203V94.3203Z" fill="#2C3B48"/>
<path d="M99.8203 94.3203H94.8203V99.3203H93.1797V94.3203H88.1797V92.6797H93.1797V87.6797H94.8203V92.6797H99.8203V94.3203Z" fill="#2C3B48"/>
<path d="M137.82 94.3203H132.82V99.3203H131.18V94.3203H126.18V92.6797H131.18V87.6797H132.82V92.6797H137.82V94.3203Z" fill="#2C3B48"/>
<path d="M175.82 94.3203H170.82V99.3203H169.18V94.3203H164.18V92.6797H169.18V87.6797H170.82V92.6797H175.82V94.3203Z" fill="#2C3B48"/>
<path d="M213.82 94.3203H208.82V99.3203H207.18V94.3203H202.18V92.6797H207.18V87.6797H208.82V92.6797H213.82V94.3203Z" fill="#2C3B48"/>
<path d="M251.82 94.3203H246.82V99.3203H245.18V94.3203H240.18V92.6797H245.18V87.6797H246.82V92.6797H251.82V94.3203Z" fill="#2C3B48"/>
<path d="M289.82 94.3203H284.82V99.3203H283.18V94.3203H278.18V92.6797H283.18V87.6797H284.82V92.6797H289.82V94.3203Z" fill="#2C3B48"/>
<path d="M327.82 94.3203H322.82V99.3203H321.18V94.3203H316.18V92.6797H321.18V87.6797H322.82V92.6797H327.82V94.3203Z" fill="#2C3B48"/>
<path d="M365.82 94.3203H360.82V99.3203H359.18V94.3203H354.18V92.6797H359.18V87.6797H360.82V92.6797H365.82V94.3203Z" fill="#2C3B48"/>
<path d="M403.82 94.3203H398.82V99.3203H397.18V94.3203H392.18V92.6797H397.18V87.6797H398.82V92.6797H403.82V94.3203Z" fill="#2C3B48"/>
<path d="M441.82 94.3203H436.82V99.3203H435.18V94.3203H430.18V92.6797H435.18V87.6797H436.82V92.6797H441.82V94.3203Z" fill="#2C3B48"/>
<path d="M479.82 94.3203H474.82V99.3203H473.18V94.3203H468.18V92.6797H473.18V87.6797H474.82V92.6797H479.82V94.3203Z" fill="#2C3B48"/>
<path d="M517.82 94.3203H512.82V99.3203H511.18V94.3203H506.18V92.6797H511.18V87.6797H512.82V92.6797H517.82V94.3203Z" fill="#2C3B48"/>
<path d="M23.8203 130.32H18.8203V135.32H17.1797V130.32H12.1797V128.68H17.1797V123.68H18.8203V128.68H23.8203V130.32Z" fill="#2C3B48"/>
<path d="M61.8203 130.32H56.8203V135.32H55.1797V130.32H50.1797V128.68H55.1797V123.68H56.8203V128.68H61.8203V130.32Z" fill="#2C3B48"/>
<path d="M99.8203 130.32H94.8203V135.32H93.1797V130.32H88.1797V128.68H93.1797V123.68H94.8203V128.68H99.8203V130.32Z" fill="#2C3B48"/>
<path d="M137.82 130.32H132.82V135.32H131.18V130.32H126.18V128.68H131.18V123.68H132.82V128.68H137.82V130.32Z" fill="#2C3B48"/>
<path d="M175.82 130.32H170.82V135.32H169.18V130.32H164.18V128.68H169.18V123.68H170.82V128.68H175.82V130.32Z" fill="#2C3B48"/>
<path d="M213.82 130.32H208.82V135.32H207.18V130.32H202.18V128.68H207.18V123.68H208.82V128.68H213.82V130.32Z" fill="#2C3B48"/>
<path d="M251.82 130.32H246.82V135.32H245.18V130.32H240.18V128.68H245.18V123.68H246.82V128.68H251.82V130.32Z" fill="#2C3B48"/>
<path d="M289.82 130.32H284.82V135.32H283.18V130.32H278.18V128.68H283.18V123.68H284.82V128.68H289.82V130.32Z" fill="#2C3B48"/>
<path d="M327.82 130.32H322.82V135.32H321.18V130.32H316.18V128.68H321.18V123.68H322.82V128.68H327.82V130.32Z" fill="#2C3B48"/>
<path d="M365.82 130.32H360.82V135.32H359.18V130.32H354.18V128.68H359.18V123.68H360.82V128.68H365.82V130.32Z" fill="#2C3B48"/>
<path d="M403.82 130.32H398.82V135.32H397.18V130.32H392.18V128.68H397.18V123.68H398.82V128.68H403.82V130.32Z" fill="#2C3B48"/>
<path d="M441.82 130.32H436.82V135.32H435.18V130.32H430.18V128.68H435.18V123.68H436.82V128.68H441.82V130.32Z" fill="#2C3B48"/>
<path d="M479.82 130.32H474.82V135.32H473.18V130.32H468.18V128.68H473.18V123.68H474.82V128.68H479.82V130.32Z" fill="#2C3B48"/>
<path d="M517.82 130.32H512.82V135.32H511.18V130.32H506.18V128.68H511.18V123.68H512.82V128.68H517.82V130.32Z" fill="#2C3B48"/>
<path d="M23.8203 166.32H18.8203V171.32H17.1797V166.32H12.1797V164.68H17.1797V159.68H18.8203V164.68H23.8203V166.32Z" fill="#2C3B48"/>
<path d="M61.8203 166.32H56.8203V171.32H55.1797V166.32H50.1797V164.68H55.1797V159.68H56.8203V164.68H61.8203V166.32Z" fill="#2C3B48"/>
<path d="M99.8203 166.32H94.8203V171.32H93.1797V166.32H88.1797V164.68H93.1797V159.68H94.8203V164.68H99.8203V166.32Z" fill="#2C3B48"/>
<path d="M137.82 166.32H132.82V171.32H131.18V166.32H126.18V164.68H131.18V159.68H132.82V164.68H137.82V166.32Z" fill="#2C3B48"/>
<path d="M175.82 166.32H170.82V171.32H169.18V166.32H164.18V164.68H169.18V159.68H170.82V164.68H175.82V166.32Z" fill="#2C3B48"/>
<path d="M213.82 166.32H208.82V171.32H207.18V166.32H202.18V164.68H207.18V159.68H208.82V164.68H213.82V166.32Z" fill="#2C3B48"/>
<path d="M251.82 166.32H246.82V171.32H245.18V166.32H240.18V164.68H245.18V159.68H246.82V164.68H251.82V166.32Z" fill="#2C3B48"/>
<path d="M289.82 166.32H284.82V171.32H283.18V166.32H278.18V164.68H283.18V159.68H284.82V164.68H289.82V166.32Z" fill="#2C3B48"/>
<path d="M327.82 166.32H322.82V171.32H321.18V166.32H316.18V164.68H321.18V159.68H322.82V164.68H327.82V166.32Z" fill="#2C3B48"/>
<path d="M365.82 166.32H360.82V171.32H359.18V166.32H354.18V164.68H359.18V159.68H360.82V164.68H365.82V166.32Z" fill="#2C3B48"/>
<path d="M403.82 166.32H398.82V171.32H397.18V166.32H392.18V164.68H397.18V159.68H398.82V164.68H403.82V166.32Z" fill="#2C3B48"/>
<path d="M441.82 166.32H436.82V171.32H435.18V166.32H430.18V164.68H435.18V159.68H436.82V164.68H441.82V166.32Z" fill="#2C3B48"/>
<path d="M479.82 166.32H474.82V171.32H473.18V166.32H468.18V164.68H473.18V159.68H474.82V164.68H479.82V166.32Z" fill="#2C3B48"/>
<path d="M517.82 166.32H512.82V171.32H511.18V166.32H506.18V164.68H511.18V159.68H512.82V164.68H517.82V166.32Z" fill="#2C3B48"/>
<path d="M23.8203 202.32H18.8203V207.32H17.1797V202.32H12.1797V200.68H17.1797V195.68H18.8203V200.68H23.8203V202.32Z" fill="#2C3B48"/>
<path d="M61.8203 202.32H56.8203V207.32H55.1797V202.32H50.1797V200.68H55.1797V195.68H56.8203V200.68H61.8203V202.32Z" fill="#2C3B48"/>
<path d="M99.8203 202.32H94.8203V207.32H93.1797V202.32H88.1797V200.68H93.1797V195.68H94.8203V200.68H99.8203V202.32Z" fill="#2C3B48"/>
<path d="M137.82 202.32H132.82V207.32H131.18V202.32H126.18V200.68H131.18V195.68H132.82V200.68H137.82V202.32Z" fill="#2C3B48"/>
<path d="M175.82 202.32H170.82V207.32H169.18V202.32H164.18V200.68H169.18V195.68H170.82V200.68H175.82V202.32Z" fill="#2C3B48"/>
<path d="M213.82 202.32H208.82V207.32H207.18V202.32H202.18V200.68H207.18V195.68H208.82V200.68H213.82V202.32Z" fill="#2C3B48"/>
<path d="M251.82 202.32H246.82V207.32H245.18V202.32H240.18V200.68H245.18V195.68H246.82V200.68H251.82V202.32Z" fill="#2C3B48"/>
<path d="M289.82 202.32H284.82V207.32H283.18V202.32H278.18V200.68H283.18V195.68H284.82V200.68H289.82V202.32Z" fill="#2C3B48"/>
<path d="M327.82 202.32H322.82V207.32H321.18V202.32H316.18V200.68H321.18V195.68H322.82V200.68H327.82V202.32Z" fill="#2C3B48"/>
<path d="M365.82 202.32H360.82V207.32H359.18V202.32H354.18V200.68H359.18V195.68H360.82V200.68H365.82V202.32Z" fill="#2C3B48"/>
<path d="M403.82 202.32H398.82V207.32H397.18V202.32H392.18V200.68H397.18V195.68H398.82V200.68H403.82V202.32Z" fill="#2C3B48"/>
<path d="M441.82 202.32H436.82V207.32H435.18V202.32H430.18V200.68H435.18V195.68H436.82V200.68H441.82V202.32Z" fill="#2C3B48"/>
<path d="M479.82 202.32H474.82V207.32H473.18V202.32H468.18V200.68H473.18V195.68H474.82V200.68H479.82V202.32Z" fill="#2C3B48"/>
<path d="M517.82 202.32H512.82V207.32H511.18V202.32H506.18V200.68H511.18V195.68H512.82V200.68H517.82V202.32Z" fill="#2C3B48"/>
<path d="M23.8203 238.32H18.8203V243.32H17.1797V238.32H12.1797V236.68H17.1797V231.68H18.8203V236.68H23.8203V238.32Z" fill="#2C3B48"/>
<path d="M61.8203 238.32H56.8203V243.32H55.1797V238.32H50.1797V236.68H55.1797V231.68H56.8203V236.68H61.8203V238.32Z" fill="#2C3B48"/>
<path d="M99.8203 238.32H94.8203V243.32H93.1797V238.32H88.1797V236.68H93.1797V231.68H94.8203V236.68H99.8203V238.32Z" fill="#2C3B48"/>
<path d="M137.82 238.32H132.82V243.32H131.18V238.32H126.18V236.68H131.18V231.68H132.82V236.68H137.82V238.32Z" fill="#2C3B48"/>
<path d="M175.82 238.32H170.82V243.32H169.18V238.32H164.18V236.68H169.18V231.68H170.82V236.68H175.82V238.32Z" fill="#2C3B48"/>
<path d="M213.82 238.32H208.82V243.32H207.18V238.32H202.18V236.68H207.18V231.68H208.82V236.68H213.82V238.32Z" fill="#2C3B48"/>
<path d="M251.82 238.32H246.82V243.32H245.18V238.32H240.18V236.68H245.18V231.68H246.82V236.68H251.82V238.32Z" fill="#2C3B48"/>
<path d="M289.82 238.32H284.82V243.32H283.18V238.32H278.18V236.68H283.18V231.68H284.82V236.68H289.82V238.32Z" fill="#2C3B48"/>
<path d="M327.82 238.32H322.82V243.32H321.18V238.32H316.18V236.68H321.18V231.68H322.82V236.68H327.82V238.32Z" fill="#2C3B48"/>
<path d="M365.82 238.32H360.82V243.32H359.18V238.32H354.18V236.68H359.18V231.68H360.82V236.68H365.82V238.32Z" fill="#2C3B48"/>
<path d="M403.82 238.32H398.82V243.32H397.18V238.32H392.18V236.68H397.18V231.68H398.82V236.68H403.82V238.32Z" fill="#2C3B48"/>
<path d="M441.82 238.32H436.82V243.32H435.18V238.32H430.18V236.68H435.18V231.68H436.82V236.68H441.82V238.32Z" fill="#2C3B48"/>
<path d="M479.82 238.32H474.82V243.32H473.18V238.32H468.18V236.68H473.18V231.68H474.82V236.68H479.82V238.32Z" fill="#2C3B48"/>
<path d="M517.82 238.32H512.82V243.32H511.18V238.32H506.18V236.68H511.18V231.68H512.82V236.68H517.82V238.32Z" fill="#2C3B48"/>
<path d="M23.8203 274.32H18.8203V279.32H17.1797V274.32H12.1797V272.68H17.1797V267.68H18.8203V272.68H23.8203V274.32Z" fill="#2C3B48"/>
<path d="M61.8203 274.32H56.8203V279.32H55.1797V274.32H50.1797V272.68H55.1797V267.68H56.8203V272.68H61.8203V274.32Z" fill="#2C3B48"/>
<path d="M99.8203 274.32H94.8203V279.32H93.1797V274.32H88.1797V272.68H93.1797V267.68H94.8203V272.68H99.8203V274.32Z" fill="#2C3B48"/>
<path d="M137.82 274.32H132.82V279.32H131.18V274.32H126.18V272.68H131.18V267.68H132.82V272.68H137.82V274.32Z" fill="#2C3B48"/>
<path d="M175.82 274.32H170.82V279.32H169.18V274.32H164.18V272.68H169.18V267.68H170.82V272.68H175.82V274.32Z" fill="#2C3B48"/>
<path d="M213.82 274.32H208.82V279.32H207.18V274.32H202.18V272.68H207.18V267.68H208.82V272.68H213.82V274.32Z" fill="#2C3B48"/>
<path d="M251.82 274.32H246.82V279.32H245.18V274.32H240.18V272.68H245.18V267.68H246.82V272.68H251.82V274.32Z" fill="#2C3B48"/>
<path d="M289.82 274.32H284.82V279.32H283.18V274.32H278.18V272.68H283.18V267.68H284.82V272.68H289.82V274.32Z" fill="#2C3B48"/>
<path d="M327.82 274.32H322.82V279.32H321.18V274.32H316.18V272.68H321.18V267.68H322.82V272.68H327.82V274.32Z" fill="#2C3B48"/>
<path d="M365.82 274.32H360.82V279.32H359.18V274.32H354.18V272.68H359.18V267.68H360.82V272.68H365.82V274.32Z" fill="#2C3B48"/>
<path d="M403.82 274.32H398.82V279.32H397.18V274.32H392.18V272.68H397.18V267.68H398.82V272.68H403.82V274.32Z" fill="#2C3B48"/>
<path d="M441.82 274.32H436.82V279.32H435.18V274.32H430.18V272.68H435.18V267.68H436.82V272.68H441.82V274.32Z" fill="#2C3B48"/>
<path d="M479.82 274.32H474.82V279.32H473.18V274.32H468.18V272.68H473.18V267.68H474.82V272.68H479.82V274.32Z" fill="#2C3B48"/>
<path d="M517.82 274.32H512.82V279.32H511.18V274.32H506.18V272.68H511.18V267.68H512.82V272.68H517.82V274.32Z" fill="#2C3B48"/>
<path d="M23.8203 310.32H18.8203V315.32H17.1797V310.32H12.1797V308.68H17.1797V303.68H18.8203V308.68H23.8203V310.32Z" fill="#2C3B48"/>
<path d="M61.8203 310.32H56.8203V315.32H55.1797V310.32H50.1797V308.68H55.1797V303.68H56.8203V308.68H61.8203V310.32Z" fill="#2C3B48"/>
<path d="M99.8203 310.32H94.8203V315.32H93.1797V310.32H88.1797V308.68H93.1797V303.68H94.8203V308.68H99.8203V310.32Z" fill="#2C3B48"/>
<path d="M137.82 310.32H132.82V315.32H131.18V310.32H126.18V308.68H131.18V303.68H132.82V308.68H137.82V310.32Z" fill="#2C3B48"/>
<path d="M175.82 310.32H170.82V315.32H169.18V310.32H164.18V308.68H169.18V303.68H170.82V308.68H175.82V310.32Z" fill="#2C3B48"/>
<path d="M213.82 310.32H208.82V315.32H207.18V310.32H202.18V308.68H207.18V303.68H208.82V308.68H213.82V310.32Z" fill="#2C3B48"/>
<path d="M251.82 310.32H246.82V315.32H245.18V310.32H240.18V308.68H245.18V303.68H246.82V308.68H251.82V310.32Z" fill="#2C3B48"/>
<path d="M289.82 310.32H284.82V315.32H283.18V310.32H278.18V308.68H283.18V303.68H284.82V308.68H289.82V310.32Z" fill="#2C3B48"/>
<path d="M327.82 310.32H322.82V315.32H321.18V310.32H316.18V308.68H321.18V303.68H322.82V308.68H327.82V310.32Z" fill="#2C3B48"/>
<path d="M365.82 310.32H360.82V315.32H359.18V310.32H354.18V308.68H359.18V303.68H360.82V308.68H365.82V310.32Z" fill="#2C3B48"/>
<path d="M403.82 310.32H398.82V315.32H397.18V310.32H392.18V308.68H397.18V303.68H398.82V308.68H403.82V310.32Z" fill="#2C3B48"/>
<path d="M441.82 310.32H436.82V315.32H435.18V310.32H430.18V308.68H435.18V303.68H436.82V308.68H441.82V310.32Z" fill="#2C3B48"/>
<path d="M479.82 310.32H474.82V315.32H473.18V310.32H468.18V308.68H473.18V303.68H474.82V308.68H479.82V310.32Z" fill="#2C3B48"/>
<path d="M517.82 310.32H512.82V315.32H511.18V310.32H506.18V308.68H511.18V303.68H512.82V308.68H517.82V310.32Z" fill="#2C3B48"/>
<path d="M23.8203 346.32H18.8203V351.32H17.1797V346.32H12.1797V344.68H17.1797V339.68H18.8203V344.68H23.8203V346.32Z" fill="#2C3B48"/>
<path d="M61.8203 346.32H56.8203V351.32H55.1797V346.32H50.1797V344.68H55.1797V339.68H56.8203V344.68H61.8203V346.32Z" fill="#2C3B48"/>
<path d="M99.8203 346.32H94.8203V351.32H93.1797V346.32H88.1797V344.68H93.1797V339.68H94.8203V344.68H99.8203V346.32Z" fill="#2C3B48"/>
<path d="M137.82 346.32H132.82V351.32H131.18V346.32H126.18V344.68H131.18V339.68H132.82V344.68H137.82V346.32Z" fill="#2C3B48"/>
<path d="M175.82 346.32H170.82V351.32H169.18V346.32H164.18V344.68H169.18V339.68H170.82V344.68H175.82V346.32Z" fill="#2C3B48"/>
<path d="M213.82 346.32H208.82V351.32H207.18V346.32H202.18V344.68H207.18V339.68H208.82V344.68H213.82V346.32Z" fill="#2C3B48"/>
<path d="M251.82 346.32H246.82V351.32H245.18V346.32H240.18V344.68H245.18V339.68H246.82V344.68H251.82V346.32Z" fill="#2C3B48"/>
<path d="M289.82 346.32H284.82V351.32H283.18V346.32H278.18V344.68H283.18V339.68H284.82V344.68H289.82V346.32Z" fill="#2C3B48"/>
<path d="M327.82 346.32H322.82V351.32H321.18V346.32H316.18V344.68H321.18V339.68H322.82V344.68H327.82V346.32Z" fill="#2C3B48"/>
<path d="M365.82 346.32H360.82V351.32H359.18V346.32H354.18V344.68H359.18V339.68H360.82V344.68H365.82V346.32Z" fill="#2C3B48"/>
<path d="M403.82 346.32H398.82V351.32H397.18V346.32H392.18V344.68H397.18V339.68H398.82V344.68H403.82V346.32Z" fill="#2C3B48"/>
<path d="M441.82 346.32H436.82V351.32H435.18V346.32H430.18V344.68H435.18V339.68H436.82V344.68H441.82V346.32Z" fill="#2C3B48"/>
<path d="M479.82 346.32H474.82V351.32H473.18V346.32H468.18V344.68H473.18V339.68H474.82V344.68H479.82V346.32Z" fill="#2C3B48"/>
<path d="M517.82 346.32H512.82V351.32H511.18V346.32H506.18V344.68H511.18V339.68H512.82V344.68H517.82V346.32Z" fill="#2C3B48"/>
<path d="M23.8203 382.32H18.8203V387.32H17.1797V382.32H12.1797V380.68H17.1797V375.68H18.8203V380.68H23.8203V382.32Z" fill="#2C3B48"/>
<path d="M61.8203 382.32H56.8203V387.32H55.1797V382.32H50.1797V380.68H55.1797V375.68H56.8203V380.68H61.8203V382.32Z" fill="#2C3B48"/>
<path d="M99.8203 382.32H94.8203V387.32H93.1797V382.32H88.1797V380.68H93.1797V375.68H94.8203V380.68H99.8203V382.32Z" fill="#2C3B48"/>
<path d="M137.82 382.32H132.82V387.32H131.18V382.32H126.18V380.68H131.18V375.68H132.82V380.68H137.82V382.32Z" fill="#2C3B48"/>
<path d="M175.82 382.32H170.82V387.32H169.18V382.32H164.18V380.68H169.18V375.68H170.82V380.68H175.82V382.32Z" fill="#2C3B48"/>
<path d="M213.82 382.32H208.82V387.32H207.18V382.32H202.18V380.68H207.18V375.68H208.82V380.68H213.82V382.32Z" fill="#2C3B48"/>
<path d="M251.82 382.32H246.82V387.32H245.18V382.32H240.18V380.68H245.18V375.68H246.82V380.68H251.82V382.32Z" fill="#2C3B48"/>
<path d="M289.82 382.32H284.82V387.32H283.18V382.32H278.18V380.68H283.18V375.68H284.82V380.68H289.82V382.32Z" fill="#2C3B48"/>
<path d="M327.82 382.32H322.82V387.32H321.18V382.32H316.18V380.68H321.18V375.68H322.82V380.68H327.82V382.32Z" fill="#2C3B48"/>
<path d="M365.82 382.32H360.82V387.32H359.18V382.32H354.18V380.68H359.18V375.68H360.82V380.68H365.82V382.32Z" fill="#2C3B48"/>
<path d="M403.82 382.32H398.82V387.32H397.18V382.32H392.18V380.68H397.18V375.68H398.82V380.68H403.82V382.32Z" fill="#2C3B48"/>
<path d="M441.82 382.32H436.82V387.32H435.18V382.32H430.18V380.68H435.18V375.68H436.82V380.68H441.82V382.32Z" fill="#2C3B48"/>
<path d="M479.82 382.32H474.82V387.32H473.18V382.32H468.18V380.68H473.18V375.68H474.82V380.68H479.82V382.32Z" fill="#2C3B48"/>
<path d="M517.82 382.32H512.82V387.32H511.18V382.32H506.18V380.68H511.18V375.68H512.82V380.68H517.82V382.32Z" fill="#2C3B48"/>
<path d="M23.8203 418.32H18.8203V423.32H17.1797V418.32H12.1797V416.68H17.1797V411.68H18.8203V416.68H23.8203V418.32Z" fill="#2C3B48"/>
<path d="M61.8203 418.32H56.8203V423.32H55.1797V418.32H50.1797V416.68H55.1797V411.68H56.8203V416.68H61.8203V418.32Z" fill="#2C3B48"/>
<path d="M99.8203 418.32H94.8203V423.32H93.1797V418.32H88.1797V416.68H93.1797V411.68H94.8203V416.68H99.8203V418.32Z" fill="#2C3B48"/>
<path d="M137.82 418.32H132.82V423.32H131.18V418.32H126.18V416.68H131.18V411.68H132.82V416.68H137.82V418.32Z" fill="#2C3B48"/>
<path d="M175.82 418.32H170.82V423.32H169.18V418.32H164.18V416.68H169.18V411.68H170.82V416.68H175.82V418.32Z" fill="#2C3B48"/>
<path d="M213.82 418.32H208.82V423.32H207.18V418.32H202.18V416.68H207.18V411.68H208.82V416.68H213.82V418.32Z" fill="#2C3B48"/>
<path d="M251.82 418.32H246.82V423.32H245.18V418.32H240.18V416.68H245.18V411.68H246.82V416.68H251.82V418.32Z" fill="#2C3B48"/>
<path d="M289.82 418.32H284.82V423.32H283.18V418.32H278.18V416.68H283.18V411.68H284.82V416.68H289.82V418.32Z" fill="#2C3B48"/>
<path d="M327.82 418.32H322.82V423.32H321.18V418.32H316.18V416.68H321.18V411.68H322.82V416.68H327.82V418.32Z" fill="#2C3B48"/>
<path d="M365.82 418.32H360.82V423.32H359.18V418.32H354.18V416.68H359.18V411.68H360.82V416.68H365.82V418.32Z" fill="#2C3B48"/>
<path d="M403.82 418.32H398.82V423.32H397.18V418.32H392.18V416.68H397.18V411.68H398.82V416.68H403.82V418.32Z" fill="#2C3B48"/>
<path d="M441.82 418.32H436.82V423.32H435.18V418.32H430.18V416.68H435.18V411.68H436.82V416.68H441.82V418.32Z" fill="#2C3B48"/>
<path d="M479.82 418.32H474.82V423.32H473.18V418.32H468.18V416.68H473.18V411.68H474.82V416.68H479.82V418.32Z" fill="#2C3B48"/>
<path d="M517.82 418.32H512.82V423.32H511.18V418.32H506.18V416.68H511.18V411.68H512.82V416.68H517.82V418.32Z" fill="#2C3B48"/>
<path d="M23.8203 454.32H18.8203V459.32H17.1797V454.32H12.1797V452.68H17.1797V447.68H18.8203V452.68H23.8203V454.32Z" fill="#2C3B48"/>
<path d="M61.8203 454.32H56.8203V459.32H55.1797V454.32H50.1797V452.68H55.1797V447.68H56.8203V452.68H61.8203V454.32Z" fill="#2C3B48"/>
<path d="M99.8203 454.32H94.8203V459.32H93.1797V454.32H88.1797V452.68H93.1797V447.68H94.8203V452.68H99.8203V454.32Z" fill="#2C3B48"/>
<path d="M137.82 454.32H132.82V459.32H131.18V454.32H126.18V452.68H131.18V447.68H132.82V452.68H137.82V454.32Z" fill="#2C3B48"/>
<path d="M175.82 454.32H170.82V459.32H169.18V454.32H164.18V452.68H169.18V447.68H170.82V452.68H175.82V454.32Z" fill="#2C3B48"/>
<path d="M213.82 454.32H208.82V459.32H207.18V454.32H202.18V452.68H207.18V447.68H208.82V452.68H213.82V454.32Z" fill="#2C3B48"/>
<path d="M251.82 454.32H246.82V459.32H245.18V454.32H240.18V452.68H245.18V447.68H246.82V452.68H251.82V454.32Z" fill="#2C3B48"/>
<path d="M289.82 454.32H284.82V459.32H283.18V454.32H278.18V452.68H283.18V447.68H284.82V452.68H289.82V454.32Z" fill="#2C3B48"/>
<path d="M327.82 454.32H322.82V459.32H321.18V454.32H316.18V452.68H321.18V447.68H322.82V452.68H327.82V454.32Z" fill="#2C3B48"/>
<path d="M365.82 454.32H360.82V459.32H359.18V454.32H354.18V452.68H359.18V447.68H360.82V452.68H365.82V454.32Z" fill="#2C3B48"/>
<path d="M403.82 454.32H398.82V459.32H397.18V454.32H392.18V452.68H397.18V447.68H398.82V452.68H403.82V454.32Z" fill="#2C3B48"/>
<path d="M441.82 454.32H436.82V459.32H435.18V454.32H430.18V452.68H435.18V447.68H436.82V452.68H441.82V454.32Z" fill="#2C3B48"/>
<path d="M479.82 454.32H474.82V459.32H473.18V454.32H468.18V452.68H473.18V447.68H474.82V452.68H479.82V454.32Z" fill="#2C3B48"/>
<path d="M517.82 454.32H512.82V459.32H511.18V454.32H506.18V452.68H511.18V447.68H512.82V452.68H517.82V454.32Z" fill="#2C3B48"/>
<path d="M23.8203 490.32H18.8203V495.32H17.1797V490.32H12.1797V488.68H17.1797V483.68H18.8203V488.68H23.8203V490.32Z" fill="#2C3B48"/>
<path d="M61.8203 490.32H56.8203V495.32H55.1797V490.32H50.1797V488.68H55.1797V483.68H56.8203V488.68H61.8203V490.32Z" fill="#2C3B48"/>
<path d="M99.8203 490.32H94.8203V495.32H93.1797V490.32H88.1797V488.68H93.1797V483.68H94.8203V488.68H99.8203V490.32Z" fill="#2C3B48"/>
<path d="M137.82 490.32H132.82V495.32H131.18V490.32H126.18V488.68H131.18V483.68H132.82V488.68H137.82V490.32Z" fill="#2C3B48"/>
<path d="M175.82 490.32H170.82V495.32H169.18V490.32H164.18V488.68H169.18V483.68H170.82V488.68H175.82V490.32Z" fill="#2C3B48"/>
<path d="M213.82 490.32H208.82V495.32H207.18V490.32H202.18V488.68H207.18V483.68H208.82V488.68H213.82V490.32Z" fill="#2C3B48"/>
<path d="M251.82 490.32H246.82V495.32H245.18V490.32H240.18V488.68H245.18V483.68H246.82V488.68H251.82V490.32Z" fill="#2C3B48"/>
<path d="M289.82 490.32H284.82V495.32H283.18V490.32H278.18V488.68H283.18V483.68H284.82V488.68H289.82V490.32Z" fill="#2C3B48"/>
<path d="M327.82 490.32H322.82V495.32H321.18V490.32H316.18V488.68H321.18V483.68H322.82V488.68H327.82V490.32Z" fill="#2C3B48"/>
<path d="M365.82 490.32H360.82V495.32H359.18V490.32H354.18V488.68H359.18V483.68H360.82V488.68H365.82V490.32Z" fill="#2C3B48"/>
<path d="M403.82 490.32H398.82V495.32H397.18V490.32H392.18V488.68H397.18V483.68H398.82V488.68H403.82V490.32Z" fill="#2C3B48"/>
<path d="M441.82 490.32H436.82V495.32H435.18V490.32H430.18V488.68H435.18V483.68H436.82V488.68H441.82V490.32Z" fill="#2C3B48"/>
<path d="M479.82 490.32H474.82V495.32H473.18V490.32H468.18V488.68H473.18V483.68H474.82V488.68H479.82V490.32Z" fill="#2C3B48"/>
<path d="M517.82 490.32H512.82V495.32H511.18V490.32H506.18V488.68H511.18V483.68H512.82V488.68H517.82V490.32Z" fill="#2C3B48"/>
<path d="M23.8203 526.32H18.8203V531.32H17.1797V526.32H12.1797V524.68H17.1797V519.68H18.8203V524.68H23.8203V526.32Z" fill="#2C3B48"/>
<path d="M61.8203 526.32H56.8203V531.32H55.1797V526.32H50.1797V524.68H55.1797V519.68H56.8203V524.68H61.8203V526.32Z" fill="#2C3B48"/>
<path d="M99.8203 526.32H94.8203V531.32H93.1797V526.32H88.1797V524.68H93.1797V519.68H94.8203V524.68H99.8203V526.32Z" fill="#2C3B48"/>
<path d="M137.82 526.32H132.82V531.32H131.18V526.32H126.18V524.68H131.18V519.68H132.82V524.68H137.82V526.32Z" fill="#2C3B48"/>
<path d="M175.82 526.32H170.82V531.32H169.18V526.32H164.18V524.68H169.18V519.68H170.82V524.68H175.82V526.32Z" fill="#2C3B48"/>
<path d="M213.82 526.32H208.82V531.32H207.18V526.32H202.18V524.68H207.18V519.68H208.82V524.68H213.82V526.32Z" fill="#2C3B48"/>
<path d="M251.82 526.32H246.82V531.32H245.18V526.32H240.18V524.68H245.18V519.68H246.82V524.68H251.82V526.32Z" fill="#2C3B48"/>
<path d="M289.82 526.32H284.82V531.32H283.18V526.32H278.18V524.68H283.18V519.68H284.82V524.68H289.82V526.32Z" fill="#2C3B48"/>
<path d="M327.82 526.32H322.82V531.32H321.18V526.32H316.18V524.68H321.18V519.68H322.82V524.68H327.82V526.32Z" fill="#2C3B48"/>
<path d="M365.82 526.32H360.82V531.32H359.18V526.32H354.18V524.68H359.18V519.68H360.82V524.68H365.82V526.32Z" fill="#2C3B48"/>
<path d="M403.82 526.32H398.82V531.32H397.18V526.32H392.18V524.68H397.18V519.68H398.82V524.68H403.82V526.32Z" fill="#2C3B48"/>
<path d="M441.82 526.32H436.82V531.32H435.18V526.32H430.18V524.68H435.18V519.68H436.82V524.68H441.82V526.32Z" fill="#2C3B48"/>
<path d="M479.82 526.32H474.82V531.32H473.18V526.32H468.18V524.68H473.18V519.68H474.82V524.68H479.82V526.32Z" fill="#2C3B48"/>
<path d="M517.82 526.32H512.82V531.32H511.18V526.32H506.18V524.68H511.18V519.68H512.82V524.68H517.82V526.32Z" fill="#2C3B48"/>
<path d="M23.8203 562.32H18.8203V567.32H17.1797V562.32H12.1797V560.68H17.1797V555.68H18.8203V560.68H23.8203V562.32Z" fill="#2C3B48"/>
<path d="M61.8203 562.32H56.8203V567.32H55.1797V562.32H50.1797V560.68H55.1797V555.68H56.8203V560.68H61.8203V562.32Z" fill="#2C3B48"/>
<path d="M99.8203 562.32H94.8203V567.32H93.1797V562.32H88.1797V560.68H93.1797V555.68H94.8203V560.68H99.8203V562.32Z" fill="#2C3B48"/>
<path d="M137.82 562.32H132.82V567.32H131.18V562.32H126.18V560.68H131.18V555.68H132.82V560.68H137.82V562.32Z" fill="#2C3B48"/>
<path d="M175.82 562.32H170.82V567.32H169.18V562.32H164.18V560.68H169.18V555.68H170.82V560.68H175.82V562.32Z" fill="#2C3B48"/>
<path d="M213.82 562.32H208.82V567.32H207.18V562.32H202.18V560.68H207.18V555.68H208.82V560.68H213.82V562.32Z" fill="#2C3B48"/>
<path d="M251.82 562.32H246.82V567.32H245.18V562.32H240.18V560.68H245.18V555.68H246.82V560.68H251.82V562.32Z" fill="#2C3B48"/>
<path d="M289.82 562.32H284.82V567.32H283.18V562.32H278.18V560.68H283.18V555.68H284.82V560.68H289.82V562.32Z" fill="#2C3B48"/>
<path d="M327.82 562.32H322.82V567.32H321.18V562.32H316.18V560.68H321.18V555.68H322.82V560.68H327.82V562.32Z" fill="#2C3B48"/>
<path d="M365.82 562.32H360.82V567.32H359.18V562.32H354.18V560.68H359.18V555.68H360.82V560.68H365.82V562.32Z" fill="#2C3B48"/>
<path d="M403.82 562.32H398.82V567.32H397.18V562.32H392.18V560.68H397.18V555.68H398.82V560.68H403.82V562.32Z" fill="#2C3B48"/>
<path d="M441.82 562.32H436.82V567.32H435.18V562.32H430.18V560.68H435.18V555.68H436.82V560.68H441.82V562.32Z" fill="#2C3B48"/>
<path d="M479.82 562.32H474.82V567.32H473.18V562.32H468.18V560.68H473.18V555.68H474.82V560.68H479.82V562.32Z" fill="#2C3B48"/>
<path d="M517.82 562.32H512.82V567.32H511.18V562.32H506.18V560.68H511.18V555.68H512.82V560.68H517.82V562.32Z" fill="#2C3B48"/>
<path d="M23.8203 598.32H18.8203V603.32H17.1797V598.32H12.1797V596.68H17.1797V591.68H18.8203V596.68H23.8203V598.32Z" fill="#2C3B48"/>
<path d="M61.8203 598.32H56.8203V603.32H55.1797V598.32H50.1797V596.68H55.1797V591.68H56.8203V596.68H61.8203V598.32Z" fill="#2C3B48"/>
<path d="M99.8203 598.32H94.8203V603.32H93.1797V598.32H88.1797V596.68H93.1797V591.68H94.8203V596.68H99.8203V598.32Z" fill="#2C3B48"/>
<path d="M137.82 598.32H132.82V603.32H131.18V598.32H126.18V596.68H131.18V591.68H132.82V596.68H137.82V598.32Z" fill="#2C3B48"/>
<path d="M175.82 598.32H170.82V603.32H169.18V598.32H164.18V596.68H169.18V591.68H170.82V596.68H175.82V598.32Z" fill="#2C3B48"/>
<path d="M213.82 598.32H208.82V603.32H207.18V598.32H202.18V596.68H207.18V591.68H208.82V596.68H213.82V598.32Z" fill="#2C3B48"/>
<path d="M251.82 598.32H246.82V603.32H245.18V598.32H240.18V596.68H245.18V591.68H246.82V596.68H251.82V598.32Z" fill="#2C3B48"/>
<path d="M289.82 598.32H284.82V603.32H283.18V598.32H278.18V596.68H283.18V591.68H284.82V596.68H289.82V598.32Z" fill="#2C3B48"/>
<path d="M327.82 598.32H322.82V603.32H321.18V598.32H316.18V596.68H321.18V591.68H322.82V596.68H327.82V598.32Z" fill="#2C3B48"/>
<path d="M365.82 598.32H360.82V603.32H359.18V598.32H354.18V596.68H359.18V591.68H360.82V596.68H365.82V598.32Z" fill="#2C3B48"/>
<path d="M403.82 598.32H398.82V603.32H397.18V598.32H392.18V596.68H397.18V591.68H398.82V596.68H403.82V598.32Z" fill="#2C3B48"/>
<path d="M441.82 598.32H436.82V603.32H435.18V598.32H430.18V596.68H435.18V591.68H436.82V596.68H441.82V598.32Z" fill="#2C3B48"/>
<path d="M479.82 598.32H474.82V603.32H473.18V598.32H468.18V596.68H473.18V591.68H474.82V596.68H479.82V598.32Z" fill="#2C3B48"/>
<path d="M517.82 598.32H512.82V603.32H511.18V598.32H506.18V596.68H511.18V591.68H512.82V596.68H517.82V598.32Z" fill="#2C3B48"/>
<path d="M23.8203 634.32H18.8203V639.32H17.1797V634.32H12.1797V632.68H17.1797V627.68H18.8203V632.68H23.8203V634.32Z" fill="#2C3B48"/>
<path d="M61.8203 634.32H56.8203V639.32H55.1797V634.32H50.1797V632.68H55.1797V627.68H56.8203V632.68H61.8203V634.32Z" fill="#2C3B48"/>
<path d="M99.8203 634.32H94.8203V639.32H93.1797V634.32H88.1797V632.68H93.1797V627.68H94.8203V632.68H99.8203V634.32Z" fill="#2C3B48"/>
<path d="M137.82 634.32H132.82V639.32H131.18V634.32H126.18V632.68H131.18V627.68H132.82V632.68H137.82V634.32Z" fill="#2C3B48"/>
<path d="M175.82 634.32H170.82V639.32H169.18V634.32H164.18V632.68H169.18V627.68H170.82V632.68H175.82V634.32Z" fill="#2C3B48"/>
<path d="M213.82 634.32H208.82V639.32H207.18V634.32H202.18V632.68H207.18V627.68H208.82V632.68H213.82V634.32Z" fill="#2C3B48"/>
<path d="M251.82 634.32H246.82V639.32H245.18V634.32H240.18V632.68H245.18V627.68H246.82V632.68H251.82V634.32Z" fill="#2C3B48"/>
<path d="M289.82 634.32H284.82V639.32H283.18V634.32H278.18V632.68H283.18V627.68H284.82V632.68H289.82V634.32Z" fill="#2C3B48"/>
<path d="M327.82 634.32H322.82V639.32H321.18V634.32H316.18V632.68H321.18V627.68H322.82V632.68H327.82V634.32Z" fill="#2C3B48"/>
<path d="M365.82 634.32H360.82V639.32H359.18V634.32H354.18V632.68H359.18V627.68H360.82V632.68H365.82V634.32Z" fill="#2C3B48"/>
<path d="M403.82 634.32H398.82V639.32H397.18V634.32H392.18V632.68H397.18V627.68H398.82V632.68H403.82V634.32Z" fill="#2C3B48"/>
<path d="M441.82 634.32H436.82V639.32H435.18V634.32H430.18V632.68H435.18V627.68H436.82V632.68H441.82V634.32Z" fill="#2C3B48"/>
<path d="M479.82 634.32H474.82V639.32H473.18V634.32H468.18V632.68H473.18V627.68H474.82V632.68H479.82V634.32Z" fill="#2C3B48"/>
<path d="M517.82 634.32H512.82V639.32H511.18V634.32H506.18V632.68H511.18V627.68H512.82V632.68H517.82V634.32Z" fill="#2C3B48"/>
<path d="M23.8203 670.32H18.8203V675.32H17.1797V670.32H12.1797V668.68H17.1797V663.68H18.8203V668.68H23.8203V670.32Z" fill="#2C3B48"/>
<path d="M61.8203 670.32H56.8203V675.32H55.1797V670.32H50.1797V668.68H55.1797V663.68H56.8203V668.68H61.8203V670.32Z" fill="#2C3B48"/>
<path d="M99.8203 670.32H94.8203V675.32H93.1797V670.32H88.1797V668.68H93.1797V663.68H94.8203V668.68H99.8203V670.32Z" fill="#2C3B48"/>
<path d="M137.82 670.32H132.82V675.32H131.18V670.32H126.18V668.68H131.18V663.68H132.82V668.68H137.82V670.32Z" fill="#2C3B48"/>
<path d="M175.82 670.32H170.82V675.32H169.18V670.32H164.18V668.68H169.18V663.68H170.82V668.68H175.82V670.32Z" fill="#2C3B48"/>
<path d="M213.82 670.32H208.82V675.32H207.18V670.32H202.18V668.68H207.18V663.68H208.82V668.68H213.82V670.32Z" fill="#2C3B48"/>
<path d="M251.82 670.32H246.82V675.32H245.18V670.32H240.18V668.68H245.18V663.68H246.82V668.68H251.82V670.32Z" fill="#2C3B48"/>
<path d="M289.82 670.32H284.82V675.32H283.18V670.32H278.18V668.68H283.18V663.68H284.82V668.68H289.82V670.32Z" fill="#2C3B48"/>
<path d="M327.82 670.32H322.82V675.32H321.18V670.32H316.18V668.68H321.18V663.68H322.82V668.68H327.82V670.32Z" fill="#2C3B48"/>
<path d="M365.82 670.32H360.82V675.32H359.18V670.32H354.18V668.68H359.18V663.68H360.82V668.68H365.82V670.32Z" fill="#2C3B48"/>
<path d="M403.82 670.32H398.82V675.32H397.18V670.32H392.18V668.68H397.18V663.68H398.82V668.68H403.82V670.32Z" fill="#2C3B48"/>
<path d="M441.82 670.32H436.82V675.32H435.18V670.32H430.18V668.68H435.18V663.68H436.82V668.68H441.82V670.32Z" fill="#2C3B48"/>
<path d="M479.82 670.32H474.82V675.32H473.18V670.32H468.18V668.68H473.18V663.68H474.82V668.68H479.82V670.32Z" fill="#2C3B48"/>
<path d="M517.82 670.32H512.82V675.32H511.18V670.32H506.18V668.68H511.18V663.68H512.82V668.68H517.82V670.32Z" fill="#2C3B48"/>
<g filter="url(#filter0_d_1118_1379)">
<rect x="234.868" y="-0.423462" width="600" height="600" rx="100" transform="rotate(15 234.868 -0.423462)" fill="url(#paint0_linear_1118_1379)"/>
</g>
<g style="mix-blend-mode:multiply">
<rect x="338.25" y="-34.1736" width="602" height="602" rx="101" transform="rotate(30 338.25 -34.1736)" stroke="#D4DCE3" stroke-width="2"/>
</g>
<defs>
<filter id="filter0_d_1118_1379" x="86.0261" y="14.0262" width="721.948" height="721.948" filterUnits="userSpaceOnUse" color-interpolation-filters="sRGB">
<feFlood flood-opacity="0" result="BackgroundImageFix"/>
<feColorMatrix in="SourceAlpha" type="matrix" values="0 0 0 0 0 0 0 0 0 0 0 0 0 0 0 0 0 0 127 0" result="hardAlpha"/>
<feOffset dy="8"/>
<feGaussianBlur stdDeviation="8"/>
<feColorMatrix type="matrix" values="0 0 0 0 0.105882 0 0 0 0 0.152941 0 0 0 0 0.192157 0 0 0 0.24 0"/>
<feBlend mode="normal" in2="BackgroundImageFix" result="effect1_dropShadow_1118_1379"/>
<feBlend mode="normal" in="SourceGraphic" in2="effect1_dropShadow_1118_1379" result="shape"/>
</filter>
<linearGradient id="paint0_linear_1118_1379" x1="534.868" y1="-0.423462" x2="534.868" y2="599.577" gradientUnits="userSpaceOnUse">
<stop stop-color="#FF203B"/>
<stop offset="1" stop-color="#BB243E"/>
</linearGradient>
</defs>
</svg>
