<svg width="825" height="754" viewBox="0 0 825 754" fill="none" xmlns="http://www.w3.org/2000/svg">
<path d="M318.82 23.3203H313.82V28.3203H312.18V23.3203H307.18V21.6797H312.18V16.6797H313.82V21.6797H318.82V23.3203Z" fill="#2C3B48"/>
<path d="M356.82 23.3203H351.82V28.3203H350.18V23.3203H345.18V21.6797H350.18V16.6797H351.82V21.6797H356.82V23.3203Z" fill="#2C3B48"/>
<path d="M394.82 23.3203H389.82V28.3203H388.18V23.3203H383.18V21.6797H388.18V16.6797H389.82V21.6797H394.82V23.3203Z" fill="#2C3B48"/>
<path d="M432.82 23.3203H427.82V28.3203H426.18V23.3203H421.18V21.6797H426.18V16.6797H427.82V21.6797H432.82V23.3203Z" fill="#2C3B48"/>
<path d="M470.82 23.3203H465.82V28.3203H464.18V23.3203H459.18V21.6797H464.18V16.6797H465.82V21.6797H470.82V23.3203Z" fill="#2C3B48"/>
<path d="M508.82 23.3203H503.82V28.3203H502.18V23.3203H497.18V21.6797H502.18V16.6797H503.82V21.6797H508.82V23.3203Z" fill="#2C3B48"/>
<path d="M546.82 23.3203H541.82V28.3203H540.18V23.3203H535.18V21.6797H540.18V16.6797H541.82V21.6797H546.82V23.3203Z" fill="#2C3B48"/>
<path d="M584.82 23.3203H579.82V28.3203H578.18V23.3203H573.18V21.6797H578.18V16.6797H579.82V21.6797H584.82V23.3203Z" fill="#2C3B48"/>
<path d="M622.82 23.3203H617.82V28.3203H616.18V23.3203H611.18V21.6797H616.18V16.6797H617.82V21.6797H622.82V23.3203Z" fill="#2C3B48"/>
<path d="M660.82 23.3203H655.82V28.3203H654.18V23.3203H649.18V21.6797H654.18V16.6797H655.82V21.6797H660.82V23.3203Z" fill="#2C3B48"/>
<path d="M698.82 23.3203H693.82V28.3203H692.18V23.3203H687.18V21.6797H692.18V16.6797H693.82V21.6797H698.82V23.3203Z" fill="#2C3B48"/>
<path d="M736.82 23.3203H731.82V28.3203H730.18V23.3203H725.18V21.6797H730.18V16.6797H731.82V21.6797H736.82V23.3203Z" fill="#2C3B48"/>
<path d="M774.82 23.3203H769.82V28.3203H768.18V23.3203H763.18V21.6797H768.18V16.6797H769.82V21.6797H774.82V23.3203Z" fill="#2C3B48"/>
<path d="M812.82 23.3203H807.82V28.3203H806.18V23.3203H801.18V21.6797H806.18V16.6797H807.82V21.6797H812.82V23.3203Z" fill="#2C3B48"/>
<path d="M318.82 59.3203H313.82V64.3203H312.18V59.3203H307.18V57.6797H312.18V52.6797H313.82V57.6797H318.82V59.3203Z" fill="#2C3B48"/>
<path d="M356.82 59.3203H351.82V64.3203H350.18V59.3203H345.18V57.6797H350.18V52.6797H351.82V57.6797H356.82V59.3203Z" fill="#2C3B48"/>
<path d="M394.82 59.3203H389.82V64.3203H388.18V59.3203H383.18V57.6797H388.18V52.6797H389.82V57.6797H394.82V59.3203Z" fill="#2C3B48"/>
<path d="M432.82 59.3203H427.82V64.3203H426.18V59.3203H421.18V57.6797H426.18V52.6797H427.82V57.6797H432.82V59.3203Z" fill="#2C3B48"/>
<path d="M470.82 59.3203H465.82V64.3203H464.18V59.3203H459.18V57.6797H464.18V52.6797H465.82V57.6797H470.82V59.3203Z" fill="#2C3B48"/>
<path d="M508.82 59.3203H503.82V64.3203H502.18V59.3203H497.18V57.6797H502.18V52.6797H503.82V57.6797H508.82V59.3203Z" fill="#2C3B48"/>
<path d="M546.82 59.3203H541.82V64.3203H540.18V59.3203H535.18V57.6797H540.18V52.6797H541.82V57.6797H546.82V59.3203Z" fill="#2C3B48"/>
<path d="M584.82 59.3203H579.82V64.3203H578.18V59.3203H573.18V57.6797H578.18V52.6797H579.82V57.6797H584.82V59.3203Z" fill="#2C3B48"/>
<path d="M622.82 59.3203H617.82V64.3203H616.18V59.3203H611.18V57.6797H616.18V52.6797H617.82V57.6797H622.82V59.3203Z" fill="#2C3B48"/>
<path d="M660.82 59.3203H655.82V64.3203H654.18V59.3203H649.18V57.6797H654.18V52.6797H655.82V57.6797H660.82V59.3203Z" fill="#2C3B48"/>
<path d="M698.82 59.3203H693.82V64.3203H692.18V59.3203H687.18V57.6797H692.18V52.6797H693.82V57.6797H698.82V59.3203Z" fill="#2C3B48"/>
<path d="M736.82 59.3203H731.82V64.3203H730.18V59.3203H725.18V57.6797H730.18V52.6797H731.82V57.6797H736.82V59.3203Z" fill="#2C3B48"/>
<path d="M774.82 59.3203H769.82V64.3203H768.18V59.3203H763.18V57.6797H768.18V52.6797H769.82V57.6797H774.82V59.3203Z" fill="#2C3B48"/>
<path d="M812.82 59.3203H807.82V64.3203H806.18V59.3203H801.18V57.6797H806.18V52.6797H807.82V57.6797H812.82V59.3203Z" fill="#2C3B48"/>
<path d="M318.82 95.3203H313.82V100.32H312.18V95.3203H307.18V93.6797H312.18V88.6797H313.82V93.6797H318.82V95.3203Z" fill="#2C3B48"/>
<path d="M356.82 95.3203H351.82V100.32H350.18V95.3203H345.18V93.6797H350.18V88.6797H351.82V93.6797H356.82V95.3203Z" fill="#2C3B48"/>
<path d="M394.82 95.3203H389.82V100.32H388.18V95.3203H383.18V93.6797H388.18V88.6797H389.82V93.6797H394.82V95.3203Z" fill="#2C3B48"/>
<path d="M432.82 95.3203H427.82V100.32H426.18V95.3203H421.18V93.6797H426.18V88.6797H427.82V93.6797H432.82V95.3203Z" fill="#2C3B48"/>
<path d="M470.82 95.3203H465.82V100.32H464.18V95.3203H459.18V93.6797H464.18V88.6797H465.82V93.6797H470.82V95.3203Z" fill="#2C3B48"/>
<path d="M508.82 95.3203H503.82V100.32H502.18V95.3203H497.18V93.6797H502.18V88.6797H503.82V93.6797H508.82V95.3203Z" fill="#2C3B48"/>
<path d="M546.82 95.3203H541.82V100.32H540.18V95.3203H535.18V93.6797H540.18V88.6797H541.82V93.6797H546.82V95.3203Z" fill="#2C3B48"/>
<path d="M584.82 95.3203H579.82V100.32H578.18V95.3203H573.18V93.6797H578.18V88.6797H579.82V93.6797H584.82V95.3203Z" fill="#2C3B48"/>
<path d="M622.82 95.3203H617.82V100.32H616.18V95.3203H611.18V93.6797H616.18V88.6797H617.82V93.6797H622.82V95.3203Z" fill="#2C3B48"/>
<path d="M660.82 95.3203H655.82V100.32H654.18V95.3203H649.18V93.6797H654.18V88.6797H655.82V93.6797H660.82V95.3203Z" fill="#2C3B48"/>
<path d="M698.82 95.3203H693.82V100.32H692.18V95.3203H687.18V93.6797H692.18V88.6797H693.82V93.6797H698.82V95.3203Z" fill="#2C3B48"/>
<path d="M736.82 95.3203H731.82V100.32H730.18V95.3203H725.18V93.6797H730.18V88.6797H731.82V93.6797H736.82V95.3203Z" fill="#2C3B48"/>
<path d="M774.82 95.3203H769.82V100.32H768.18V95.3203H763.18V93.6797H768.18V88.6797H769.82V93.6797H774.82V95.3203Z" fill="#2C3B48"/>
<path d="M812.82 95.3203H807.82V100.32H806.18V95.3203H801.18V93.6797H806.18V88.6797H807.82V93.6797H812.82V95.3203Z" fill="#2C3B48"/>
<path d="M318.82 131.32H313.82V136.32H312.18V131.32H307.18V129.68H312.18V124.68H313.82V129.68H318.82V131.32Z" fill="#2C3B48"/>
<path d="M356.82 131.32H351.82V136.32H350.18V131.32H345.18V129.68H350.18V124.68H351.82V129.68H356.82V131.32Z" fill="#2C3B48"/>
<path d="M394.82 131.32H389.82V136.32H388.18V131.32H383.18V129.68H388.18V124.68H389.82V129.68H394.82V131.32Z" fill="#2C3B48"/>
<path d="M432.82 131.32H427.82V136.32H426.18V131.32H421.18V129.68H426.18V124.68H427.82V129.68H432.82V131.32Z" fill="#2C3B48"/>
<path d="M470.82 131.32H465.82V136.32H464.18V131.32H459.18V129.68H464.18V124.68H465.82V129.68H470.82V131.32Z" fill="#2C3B48"/>
<path d="M508.82 131.32H503.82V136.32H502.18V131.32H497.18V129.68H502.18V124.68H503.82V129.68H508.82V131.32Z" fill="#2C3B48"/>
<path d="M546.82 131.32H541.82V136.32H540.18V131.32H535.18V129.68H540.18V124.68H541.82V129.68H546.82V131.32Z" fill="#2C3B48"/>
<path d="M584.82 131.32H579.82V136.32H578.18V131.32H573.18V129.68H578.18V124.68H579.82V129.68H584.82V131.32Z" fill="#2C3B48"/>
<path d="M622.82 131.32H617.82V136.32H616.18V131.32H611.18V129.68H616.18V124.68H617.82V129.68H622.82V131.32Z" fill="#2C3B48"/>
<path d="M660.82 131.32H655.82V136.32H654.18V131.32H649.18V129.68H654.18V124.68H655.82V129.68H660.82V131.32Z" fill="#2C3B48"/>
<path d="M698.82 131.32H693.82V136.32H692.18V131.32H687.18V129.68H692.18V124.68H693.82V129.68H698.82V131.32Z" fill="#2C3B48"/>
<path d="M736.82 131.32H731.82V136.32H730.18V131.32H725.18V129.68H730.18V124.68H731.82V129.68H736.82V131.32Z" fill="#2C3B48"/>
<path d="M774.82 131.32H769.82V136.32H768.18V131.32H763.18V129.68H768.18V124.68H769.82V129.68H774.82V131.32Z" fill="#2C3B48"/>
<path d="M812.82 131.32H807.82V136.32H806.18V131.32H801.18V129.68H806.18V124.68H807.82V129.68H812.82V131.32Z" fill="#2C3B48"/>
<path d="M318.82 167.32H313.82V172.32H312.18V167.32H307.18V165.68H312.18V160.68H313.82V165.68H318.82V167.32Z" fill="#2C3B48"/>
<path d="M356.82 167.32H351.82V172.32H350.18V167.32H345.18V165.68H350.18V160.68H351.82V165.68H356.82V167.32Z" fill="#2C3B48"/>
<path d="M394.82 167.32H389.82V172.32H388.18V167.32H383.18V165.68H388.18V160.68H389.82V165.68H394.82V167.32Z" fill="#2C3B48"/>
<path d="M432.82 167.32H427.82V172.32H426.18V167.32H421.18V165.68H426.18V160.68H427.82V165.68H432.82V167.32Z" fill="#2C3B48"/>
<path d="M470.82 167.32H465.82V172.32H464.18V167.32H459.18V165.68H464.18V160.68H465.82V165.68H470.82V167.32Z" fill="#2C3B48"/>
<path d="M508.82 167.32H503.82V172.32H502.18V167.32H497.18V165.68H502.18V160.68H503.82V165.68H508.82V167.32Z" fill="#2C3B48"/>
<path d="M546.82 167.32H541.82V172.32H540.18V167.32H535.18V165.68H540.18V160.68H541.82V165.68H546.82V167.32Z" fill="#2C3B48"/>
<path d="M584.82 167.32H579.82V172.32H578.18V167.32H573.18V165.68H578.18V160.68H579.82V165.68H584.82V167.32Z" fill="#2C3B48"/>
<path d="M622.82 167.32H617.82V172.32H616.18V167.32H611.18V165.68H616.18V160.68H617.82V165.68H622.82V167.32Z" fill="#2C3B48"/>
<path d="M660.82 167.32H655.82V172.32H654.18V167.32H649.18V165.68H654.18V160.68H655.82V165.68H660.82V167.32Z" fill="#2C3B48"/>
<path d="M698.82 167.32H693.82V172.32H692.18V167.32H687.18V165.68H692.18V160.68H693.82V165.68H698.82V167.32Z" fill="#2C3B48"/>
<path d="M736.82 167.32H731.82V172.32H730.18V167.32H725.18V165.68H730.18V160.68H731.82V165.68H736.82V167.32Z" fill="#2C3B48"/>
<path d="M774.82 167.32H769.82V172.32H768.18V167.32H763.18V165.68H768.18V160.68H769.82V165.68H774.82V167.32Z" fill="#2C3B48"/>
<path d="M812.82 167.32H807.82V172.32H806.18V167.32H801.18V165.68H806.18V160.68H807.82V165.68H812.82V167.32Z" fill="#2C3B48"/>
<path d="M318.82 203.32H313.82V208.32H312.18V203.32H307.18V201.68H312.18V196.68H313.82V201.68H318.82V203.32Z" fill="#2C3B48"/>
<path d="M356.82 203.32H351.82V208.32H350.18V203.32H345.18V201.68H350.18V196.68H351.82V201.68H356.82V203.32Z" fill="#2C3B48"/>
<path d="M394.82 203.32H389.82V208.32H388.18V203.32H383.18V201.68H388.18V196.68H389.82V201.68H394.82V203.32Z" fill="#2C3B48"/>
<path d="M432.82 203.32H427.82V208.32H426.18V203.32H421.18V201.68H426.18V196.68H427.82V201.68H432.82V203.32Z" fill="#2C3B48"/>
<path d="M470.82 203.32H465.82V208.32H464.18V203.32H459.18V201.68H464.18V196.68H465.82V201.68H470.82V203.32Z" fill="#2C3B48"/>
<path d="M508.82 203.32H503.82V208.32H502.18V203.32H497.18V201.68H502.18V196.68H503.82V201.68H508.82V203.32Z" fill="#2C3B48"/>
<path d="M546.82 203.32H541.82V208.32H540.18V203.32H535.18V201.68H540.18V196.68H541.82V201.68H546.82V203.32Z" fill="#2C3B48"/>
<path d="M584.82 203.32H579.82V208.32H578.18V203.32H573.18V201.68H578.18V196.68H579.82V201.68H584.82V203.32Z" fill="#2C3B48"/>
<path d="M622.82 203.32H617.82V208.32H616.18V203.32H611.18V201.68H616.18V196.68H617.82V201.68H622.82V203.32Z" fill="#2C3B48"/>
<path d="M660.82 203.32H655.82V208.32H654.18V203.32H649.18V201.68H654.18V196.68H655.82V201.68H660.82V203.32Z" fill="#2C3B48"/>
<path d="M698.82 203.32H693.82V208.32H692.18V203.32H687.18V201.68H692.18V196.68H693.82V201.68H698.82V203.32Z" fill="#2C3B48"/>
<path d="M736.82 203.32H731.82V208.32H730.18V203.32H725.18V201.68H730.18V196.68H731.82V201.68H736.82V203.32Z" fill="#2C3B48"/>
<path d="M774.82 203.32H769.82V208.32H768.18V203.32H763.18V201.68H768.18V196.68H769.82V201.68H774.82V203.32Z" fill="#2C3B48"/>
<path d="M812.82 203.32H807.82V208.32H806.18V203.32H801.18V201.68H806.18V196.68H807.82V201.68H812.82V203.32Z" fill="#2C3B48"/>
<path d="M318.82 239.32H313.82V244.32H312.18V239.32H307.18V237.68H312.18V232.68H313.82V237.68H318.82V239.32Z" fill="#2C3B48"/>
<path d="M356.82 239.32H351.82V244.32H350.18V239.32H345.18V237.68H350.18V232.68H351.82V237.68H356.82V239.32Z" fill="#2C3B48"/>
<path d="M394.82 239.32H389.82V244.32H388.18V239.32H383.18V237.68H388.18V232.68H389.82V237.68H394.82V239.32Z" fill="#2C3B48"/>
<path d="M432.82 239.32H427.82V244.32H426.18V239.32H421.18V237.68H426.18V232.68H427.82V237.68H432.82V239.32Z" fill="#2C3B48"/>
<path d="M470.82 239.32H465.82V244.32H464.18V239.32H459.18V237.68H464.18V232.68H465.82V237.68H470.82V239.32Z" fill="#2C3B48"/>
<path d="M508.82 239.32H503.82V244.32H502.18V239.32H497.18V237.68H502.18V232.68H503.82V237.68H508.82V239.32Z" fill="#2C3B48"/>
<path d="M546.82 239.32H541.82V244.32H540.18V239.32H535.18V237.68H540.18V232.68H541.82V237.68H546.82V239.32Z" fill="#2C3B48"/>
<path d="M584.82 239.32H579.82V244.32H578.18V239.32H573.18V237.68H578.18V232.68H579.82V237.68H584.82V239.32Z" fill="#2C3B48"/>
<path d="M622.82 239.32H617.82V244.32H616.18V239.32H611.18V237.68H616.18V232.68H617.82V237.68H622.82V239.32Z" fill="#2C3B48"/>
<path d="M660.82 239.32H655.82V244.32H654.18V239.32H649.18V237.68H654.18V232.68H655.82V237.68H660.82V239.32Z" fill="#2C3B48"/>
<path d="M698.82 239.32H693.82V244.32H692.18V239.32H687.18V237.68H692.18V232.68H693.82V237.68H698.82V239.32Z" fill="#2C3B48"/>
<path d="M736.82 239.32H731.82V244.32H730.18V239.32H725.18V237.68H730.18V232.68H731.82V237.68H736.82V239.32Z" fill="#2C3B48"/>
<path d="M774.82 239.32H769.82V244.32H768.18V239.32H763.18V237.68H768.18V232.68H769.82V237.68H774.82V239.32Z" fill="#2C3B48"/>
<path d="M812.82 239.32H807.82V244.32H806.18V239.32H801.18V237.68H806.18V232.68H807.82V237.68H812.82V239.32Z" fill="#2C3B48"/>
<path d="M318.82 275.32H313.82V280.32H312.18V275.32H307.18V273.68H312.18V268.68H313.82V273.68H318.82V275.32Z" fill="#2C3B48"/>
<path d="M356.82 275.32H351.82V280.32H350.18V275.32H345.18V273.68H350.18V268.68H351.82V273.68H356.82V275.32Z" fill="#2C3B48"/>
<path d="M394.82 275.32H389.82V280.32H388.18V275.32H383.18V273.68H388.18V268.68H389.82V273.68H394.82V275.32Z" fill="#2C3B48"/>
<path d="M432.82 275.32H427.82V280.32H426.18V275.32H421.18V273.68H426.18V268.68H427.82V273.68H432.82V275.32Z" fill="#2C3B48"/>
<path d="M470.82 275.32H465.82V280.32H464.18V275.32H459.18V273.68H464.18V268.68H465.82V273.68H470.82V275.32Z" fill="#2C3B48"/>
<path d="M508.82 275.32H503.82V280.32H502.18V275.32H497.18V273.68H502.18V268.68H503.82V273.68H508.82V275.32Z" fill="#2C3B48"/>
<path d="M546.82 275.32H541.82V280.32H540.18V275.32H535.18V273.68H540.18V268.68H541.82V273.68H546.82V275.32Z" fill="#2C3B48"/>
<path d="M584.82 275.32H579.82V280.32H578.18V275.32H573.18V273.68H578.18V268.68H579.82V273.68H584.82V275.32Z" fill="#2C3B48"/>
<path d="M622.82 275.32H617.82V280.32H616.18V275.32H611.18V273.68H616.18V268.68H617.82V273.68H622.82V275.32Z" fill="#2C3B48"/>
<path d="M660.82 275.32H655.82V280.32H654.18V275.32H649.18V273.68H654.18V268.68H655.82V273.68H660.82V275.32Z" fill="#2C3B48"/>
<path d="M698.82 275.32H693.82V280.32H692.18V275.32H687.18V273.68H692.18V268.68H693.82V273.68H698.82V275.32Z" fill="#2C3B48"/>
<path d="M736.82 275.32H731.82V280.32H730.18V275.32H725.18V273.68H730.18V268.68H731.82V273.68H736.82V275.32Z" fill="#2C3B48"/>
<path d="M774.82 275.32H769.82V280.32H768.18V275.32H763.18V273.68H768.18V268.68H769.82V273.68H774.82V275.32Z" fill="#2C3B48"/>
<path d="M812.82 275.32H807.82V280.32H806.18V275.32H801.18V273.68H806.18V268.68H807.82V273.68H812.82V275.32Z" fill="#2C3B48"/>
<path d="M318.82 311.32H313.82V316.32H312.18V311.32H307.18V309.68H312.18V304.68H313.82V309.68H318.82V311.32Z" fill="#2C3B48"/>
<path d="M356.82 311.32H351.82V316.32H350.18V311.32H345.18V309.68H350.18V304.68H351.82V309.68H356.82V311.32Z" fill="#2C3B48"/>
<path d="M394.82 311.32H389.82V316.32H388.18V311.32H383.18V309.68H388.18V304.68H389.82V309.68H394.82V311.32Z" fill="#2C3B48"/>
<path d="M432.82 311.32H427.82V316.32H426.18V311.32H421.18V309.68H426.18V304.68H427.82V309.68H432.82V311.32Z" fill="#2C3B48"/>
<path d="M470.82 311.32H465.82V316.32H464.18V311.32H459.18V309.68H464.18V304.68H465.82V309.68H470.82V311.32Z" fill="#2C3B48"/>
<path d="M508.82 311.32H503.82V316.32H502.18V311.32H497.18V309.68H502.18V304.68H503.82V309.68H508.82V311.32Z" fill="#2C3B48"/>
<path d="M546.82 311.32H541.82V316.32H540.18V311.32H535.18V309.68H540.18V304.68H541.82V309.68H546.82V311.32Z" fill="#2C3B48"/>
<path d="M584.82 311.32H579.82V316.32H578.18V311.32H573.18V309.68H578.18V304.68H579.82V309.68H584.82V311.32Z" fill="#2C3B48"/>
<path d="M622.82 311.32H617.82V316.32H616.18V311.32H611.18V309.68H616.18V304.68H617.82V309.68H622.82V311.32Z" fill="#2C3B48"/>
<path d="M660.82 311.32H655.82V316.32H654.18V311.32H649.18V309.68H654.18V304.68H655.82V309.68H660.82V311.32Z" fill="#2C3B48"/>
<path d="M698.82 311.32H693.82V316.32H692.18V311.32H687.18V309.68H692.18V304.68H693.82V309.68H698.82V311.32Z" fill="#2C3B48"/>
<path d="M736.82 311.32H731.82V316.32H730.18V311.32H725.18V309.68H730.18V304.68H731.82V309.68H736.82V311.32Z" fill="#2C3B48"/>
<path d="M774.82 311.32H769.82V316.32H768.18V311.32H763.18V309.68H768.18V304.68H769.82V309.68H774.82V311.32Z" fill="#2C3B48"/>
<path d="M812.82 311.32H807.82V316.32H806.18V311.32H801.18V309.68H806.18V304.68H807.82V309.68H812.82V311.32Z" fill="#2C3B48"/>
<path d="M318.82 347.32H313.82V352.32H312.18V347.32H307.18V345.68H312.18V340.68H313.82V345.68H318.82V347.32Z" fill="#2C3B48"/>
<path d="M356.82 347.32H351.82V352.32H350.18V347.32H345.18V345.68H350.18V340.68H351.82V345.68H356.82V347.32Z" fill="#2C3B48"/>
<path d="M394.82 347.32H389.82V352.32H388.18V347.32H383.18V345.68H388.18V340.68H389.82V345.68H394.82V347.32Z" fill="#2C3B48"/>
<path d="M432.82 347.32H427.82V352.32H426.18V347.32H421.18V345.68H426.18V340.68H427.82V345.68H432.82V347.32Z" fill="#2C3B48"/>
<path d="M470.82 347.32H465.82V352.32H464.18V347.32H459.18V345.68H464.18V340.68H465.82V345.68H470.82V347.32Z" fill="#2C3B48"/>
<path d="M508.82 347.32H503.82V352.32H502.18V347.32H497.18V345.68H502.18V340.68H503.82V345.68H508.82V347.32Z" fill="#2C3B48"/>
<path d="M546.82 347.32H541.82V352.32H540.18V347.32H535.18V345.68H540.18V340.68H541.82V345.68H546.82V347.32Z" fill="#2C3B48"/>
<path d="M584.82 347.32H579.82V352.32H578.18V347.32H573.18V345.68H578.18V340.68H579.82V345.68H584.82V347.32Z" fill="#2C3B48"/>
<path d="M622.82 347.32H617.82V352.32H616.18V347.32H611.18V345.68H616.18V340.68H617.82V345.68H622.82V347.32Z" fill="#2C3B48"/>
<path d="M660.82 347.32H655.82V352.32H654.18V347.32H649.18V345.68H654.18V340.68H655.82V345.68H660.82V347.32Z" fill="#2C3B48"/>
<path d="M698.82 347.32H693.82V352.32H692.18V347.32H687.18V345.68H692.18V340.68H693.82V345.68H698.82V347.32Z" fill="#2C3B48"/>
<path d="M736.82 347.32H731.82V352.32H730.18V347.32H725.18V345.68H730.18V340.68H731.82V345.68H736.82V347.32Z" fill="#2C3B48"/>
<path d="M774.82 347.32H769.82V352.32H768.18V347.32H763.18V345.68H768.18V340.68H769.82V345.68H774.82V347.32Z" fill="#2C3B48"/>
<path d="M812.82 347.32H807.82V352.32H806.18V347.32H801.18V345.68H806.18V340.68H807.82V345.68H812.82V347.32Z" fill="#2C3B48"/>
<path d="M318.82 383.32H313.82V388.32H312.18V383.32H307.18V381.68H312.18V376.68H313.82V381.68H318.82V383.32Z" fill="#2C3B48"/>
<path d="M356.82 383.32H351.82V388.32H350.18V383.32H345.18V381.68H350.18V376.68H351.82V381.68H356.82V383.32Z" fill="#2C3B48"/>
<path d="M394.82 383.32H389.82V388.32H388.18V383.32H383.18V381.68H388.18V376.68H389.82V381.68H394.82V383.32Z" fill="#2C3B48"/>
<path d="M432.82 383.32H427.82V388.32H426.18V383.32H421.18V381.68H426.18V376.68H427.82V381.68H432.82V383.32Z" fill="#2C3B48"/>
<path d="M470.82 383.32H465.82V388.32H464.18V383.32H459.18V381.68H464.18V376.68H465.82V381.68H470.82V383.32Z" fill="#2C3B48"/>
<path d="M508.82 383.32H503.82V388.32H502.18V383.32H497.18V381.68H502.18V376.68H503.82V381.68H508.82V383.32Z" fill="#2C3B48"/>
<path d="M546.82 383.32H541.82V388.32H540.18V383.32H535.18V381.68H540.18V376.68H541.82V381.68H546.82V383.32Z" fill="#2C3B48"/>
<path d="M584.82 383.32H579.82V388.32H578.18V383.32H573.18V381.68H578.18V376.68H579.82V381.68H584.82V383.32Z" fill="#2C3B48"/>
<path d="M622.82 383.32H617.82V388.32H616.18V383.32H611.18V381.68H616.18V376.68H617.82V381.68H622.82V383.32Z" fill="#2C3B48"/>
<path d="M660.82 383.32H655.82V388.32H654.18V383.32H649.18V381.68H654.18V376.68H655.82V381.68H660.82V383.32Z" fill="#2C3B48"/>
<path d="M698.82 383.32H693.82V388.32H692.18V383.32H687.18V381.68H692.18V376.68H693.82V381.68H698.82V383.32Z" fill="#2C3B48"/>
<path d="M736.82 383.32H731.82V388.32H730.18V383.32H725.18V381.68H730.18V376.68H731.82V381.68H736.82V383.32Z" fill="#2C3B48"/>
<path d="M774.82 383.32H769.82V388.32H768.18V383.32H763.18V381.68H768.18V376.68H769.82V381.68H774.82V383.32Z" fill="#2C3B48"/>
<path d="M812.82 383.32H807.82V388.32H806.18V383.32H801.18V381.68H806.18V376.68H807.82V381.68H812.82V383.32Z" fill="#2C3B48"/>
<path d="M318.82 419.32H313.82V424.32H312.18V419.32H307.18V417.68H312.18V412.68H313.82V417.68H318.82V419.32Z" fill="#2C3B48"/>
<path d="M356.82 419.32H351.82V424.32H350.18V419.32H345.18V417.68H350.18V412.68H351.82V417.68H356.82V419.32Z" fill="#2C3B48"/>
<path d="M394.82 419.32H389.82V424.32H388.18V419.32H383.18V417.68H388.18V412.68H389.82V417.68H394.82V419.32Z" fill="#2C3B48"/>
<path d="M432.82 419.32H427.82V424.32H426.18V419.32H421.18V417.68H426.18V412.68H427.82V417.68H432.82V419.32Z" fill="#2C3B48"/>
<path d="M470.82 419.32H465.82V424.32H464.18V419.32H459.18V417.68H464.18V412.68H465.82V417.68H470.82V419.32Z" fill="#2C3B48"/>
<path d="M508.82 419.32H503.82V424.32H502.18V419.32H497.18V417.68H502.18V412.68H503.82V417.68H508.82V419.32Z" fill="#2C3B48"/>
<path d="M546.82 419.32H541.82V424.32H540.18V419.32H535.18V417.68H540.18V412.68H541.82V417.68H546.82V419.32Z" fill="#2C3B48"/>
<path d="M584.82 419.32H579.82V424.32H578.18V419.32H573.18V417.68H578.18V412.68H579.82V417.68H584.82V419.32Z" fill="#2C3B48"/>
<path d="M622.82 419.32H617.82V424.32H616.18V419.32H611.18V417.68H616.18V412.68H617.82V417.68H622.82V419.32Z" fill="#2C3B48"/>
<path d="M660.82 419.32H655.82V424.32H654.18V419.32H649.18V417.68H654.18V412.68H655.82V417.68H660.82V419.32Z" fill="#2C3B48"/>
<path d="M698.82 419.32H693.82V424.32H692.18V419.32H687.18V417.68H692.18V412.68H693.82V417.68H698.82V419.32Z" fill="#2C3B48"/>
<path d="M736.82 419.32H731.82V424.32H730.18V419.32H725.18V417.68H730.18V412.68H731.82V417.68H736.82V419.32Z" fill="#2C3B48"/>
<path d="M774.82 419.32H769.82V424.32H768.18V419.32H763.18V417.68H768.18V412.68H769.82V417.68H774.82V419.32Z" fill="#2C3B48"/>
<path d="M812.82 419.32H807.82V424.32H806.18V419.32H801.18V417.68H806.18V412.68H807.82V417.68H812.82V419.32Z" fill="#2C3B48"/>
<path d="M318.82 455.32H313.82V460.32H312.18V455.32H307.18V453.68H312.18V448.68H313.82V453.68H318.82V455.32Z" fill="#2C3B48"/>
<path d="M356.82 455.32H351.82V460.32H350.18V455.32H345.18V453.68H350.18V448.68H351.82V453.68H356.82V455.32Z" fill="#2C3B48"/>
<path d="M394.82 455.32H389.82V460.32H388.18V455.32H383.18V453.68H388.18V448.68H389.82V453.68H394.82V455.32Z" fill="#2C3B48"/>
<path d="M432.82 455.32H427.82V460.32H426.18V455.32H421.18V453.68H426.18V448.68H427.82V453.68H432.82V455.32Z" fill="#2C3B48"/>
<path d="M470.82 455.32H465.82V460.32H464.18V455.32H459.18V453.68H464.18V448.68H465.82V453.68H470.82V455.32Z" fill="#2C3B48"/>
<path d="M508.82 455.32H503.82V460.32H502.18V455.32H497.18V453.68H502.18V448.68H503.82V453.68H508.82V455.32Z" fill="#2C3B48"/>
<path d="M546.82 455.32H541.82V460.32H540.18V455.32H535.18V453.68H540.18V448.68H541.82V453.68H546.82V455.32Z" fill="#2C3B48"/>
<path d="M584.82 455.32H579.82V460.32H578.18V455.32H573.18V453.68H578.18V448.68H579.82V453.68H584.82V455.32Z" fill="#2C3B48"/>
<path d="M622.82 455.32H617.82V460.32H616.18V455.32H611.18V453.68H616.18V448.68H617.82V453.68H622.82V455.32Z" fill="#2C3B48"/>
<path d="M660.82 455.32H655.82V460.32H654.18V455.32H649.18V453.68H654.18V448.68H655.82V453.68H660.82V455.32Z" fill="#2C3B48"/>
<path d="M698.82 455.32H693.82V460.32H692.18V455.32H687.18V453.68H692.18V448.68H693.82V453.68H698.82V455.32Z" fill="#2C3B48"/>
<path d="M736.82 455.32H731.82V460.32H730.18V455.32H725.18V453.68H730.18V448.68H731.82V453.68H736.82V455.32Z" fill="#2C3B48"/>
<path d="M774.82 455.32H769.82V460.32H768.18V455.32H763.18V453.68H768.18V448.68H769.82V453.68H774.82V455.32Z" fill="#2C3B48"/>
<path d="M812.82 455.32H807.82V460.32H806.18V455.32H801.18V453.68H806.18V448.68H807.82V453.68H812.82V455.32Z" fill="#2C3B48"/>
<path d="M318.82 491.32H313.82V496.32H312.18V491.32H307.18V489.68H312.18V484.68H313.82V489.68H318.82V491.32Z" fill="#2C3B48"/>
<path d="M356.82 491.32H351.82V496.32H350.18V491.32H345.18V489.68H350.18V484.68H351.82V489.68H356.82V491.32Z" fill="#2C3B48"/>
<path d="M394.82 491.32H389.82V496.32H388.18V491.32H383.18V489.68H388.18V484.68H389.82V489.68H394.82V491.32Z" fill="#2C3B48"/>
<path d="M432.82 491.32H427.82V496.32H426.18V491.32H421.18V489.68H426.18V484.68H427.82V489.68H432.82V491.32Z" fill="#2C3B48"/>
<path d="M470.82 491.32H465.82V496.32H464.18V491.32H459.18V489.68H464.18V484.68H465.82V489.68H470.82V491.32Z" fill="#2C3B48"/>
<path d="M508.82 491.32H503.82V496.32H502.18V491.32H497.18V489.68H502.18V484.68H503.82V489.68H508.82V491.32Z" fill="#2C3B48"/>
<path d="M546.82 491.32H541.82V496.32H540.18V491.32H535.18V489.68H540.18V484.68H541.82V489.68H546.82V491.32Z" fill="#2C3B48"/>
<path d="M584.82 491.32H579.82V496.32H578.18V491.32H573.18V489.68H578.18V484.68H579.82V489.68H584.82V491.32Z" fill="#2C3B48"/>
<path d="M622.82 491.32H617.82V496.32H616.18V491.32H611.18V489.68H616.18V484.68H617.82V489.68H622.82V491.32Z" fill="#2C3B48"/>
<path d="M660.82 491.32H655.82V496.32H654.18V491.32H649.18V489.68H654.18V484.68H655.82V489.68H660.82V491.32Z" fill="#2C3B48"/>
<path d="M698.82 491.32H693.82V496.32H692.18V491.32H687.18V489.68H692.18V484.68H693.82V489.68H698.82V491.32Z" fill="#2C3B48"/>
<path d="M736.82 491.32H731.82V496.32H730.18V491.32H725.18V489.68H730.18V484.68H731.82V489.68H736.82V491.32Z" fill="#2C3B48"/>
<path d="M774.82 491.32H769.82V496.32H768.18V491.32H763.18V489.68H768.18V484.68H769.82V489.68H774.82V491.32Z" fill="#2C3B48"/>
<path d="M812.82 491.32H807.82V496.32H806.18V491.32H801.18V489.68H806.18V484.68H807.82V489.68H812.82V491.32Z" fill="#2C3B48"/>
<path d="M318.82 527.32H313.82V532.32H312.18V527.32H307.18V525.68H312.18V520.68H313.82V525.68H318.82V527.32Z" fill="#2C3B48"/>
<path d="M356.82 527.32H351.82V532.32H350.18V527.32H345.18V525.68H350.18V520.68H351.82V525.68H356.82V527.32Z" fill="#2C3B48"/>
<path d="M394.82 527.32H389.82V532.32H388.18V527.32H383.18V525.68H388.18V520.68H389.82V525.68H394.82V527.32Z" fill="#2C3B48"/>
<path d="M432.82 527.32H427.82V532.32H426.18V527.32H421.18V525.68H426.18V520.68H427.82V525.68H432.82V527.32Z" fill="#2C3B48"/>
<path d="M470.82 527.32H465.82V532.32H464.18V527.32H459.18V525.68H464.18V520.68H465.82V525.68H470.82V527.32Z" fill="#2C3B48"/>
<path d="M508.82 527.32H503.82V532.32H502.18V527.32H497.18V525.68H502.18V520.68H503.82V525.68H508.82V527.32Z" fill="#2C3B48"/>
<path d="M546.82 527.32H541.82V532.32H540.18V527.32H535.18V525.68H540.18V520.68H541.82V525.68H546.82V527.32Z" fill="#2C3B48"/>
<path d="M584.82 527.32H579.82V532.32H578.18V527.32H573.18V525.68H578.18V520.68H579.82V525.68H584.82V527.32Z" fill="#2C3B48"/>
<path d="M622.82 527.32H617.82V532.32H616.18V527.32H611.18V525.68H616.18V520.68H617.82V525.68H622.82V527.32Z" fill="#2C3B48"/>
<path d="M660.82 527.32H655.82V532.32H654.18V527.32H649.18V525.68H654.18V520.68H655.82V525.68H660.82V527.32Z" fill="#2C3B48"/>
<path d="M698.82 527.32H693.82V532.32H692.18V527.32H687.18V525.68H692.18V520.68H693.82V525.68H698.82V527.32Z" fill="#2C3B48"/>
<path d="M736.82 527.32H731.82V532.32H730.18V527.32H725.18V525.68H730.18V520.68H731.82V525.68H736.82V527.32Z" fill="#2C3B48"/>
<path d="M774.82 527.32H769.82V532.32H768.18V527.32H763.18V525.68H768.18V520.68H769.82V525.68H774.82V527.32Z" fill="#2C3B48"/>
<path d="M812.82 527.32H807.82V532.32H806.18V527.32H801.18V525.68H806.18V520.68H807.82V525.68H812.82V527.32Z" fill="#2C3B48"/>
<path d="M318.82 563.32H313.82V568.32H312.18V563.32H307.18V561.68H312.18V556.68H313.82V561.68H318.82V563.32Z" fill="#2C3B48"/>
<path d="M356.82 563.32H351.82V568.32H350.18V563.32H345.18V561.68H350.18V556.68H351.82V561.68H356.82V563.32Z" fill="#2C3B48"/>
<path d="M394.82 563.32H389.82V568.32H388.18V563.32H383.18V561.68H388.18V556.68H389.82V561.68H394.82V563.32Z" fill="#2C3B48"/>
<path d="M432.82 563.32H427.82V568.32H426.18V563.32H421.18V561.68H426.18V556.68H427.82V561.68H432.82V563.32Z" fill="#2C3B48"/>
<path d="M470.82 563.32H465.82V568.32H464.18V563.32H459.18V561.68H464.18V556.68H465.82V561.68H470.82V563.32Z" fill="#2C3B48"/>
<path d="M508.82 563.32H503.82V568.32H502.18V563.32H497.18V561.68H502.18V556.68H503.82V561.68H508.82V563.32Z" fill="#2C3B48"/>
<path d="M546.82 563.32H541.82V568.32H540.18V563.32H535.18V561.68H540.18V556.68H541.82V561.68H546.82V563.32Z" fill="#2C3B48"/>
<path d="M584.82 563.32H579.82V568.32H578.18V563.32H573.18V561.68H578.18V556.68H579.82V561.68H584.82V563.32Z" fill="#2C3B48"/>
<path d="M622.82 563.32H617.82V568.32H616.18V563.32H611.18V561.68H616.18V556.68H617.82V561.68H622.82V563.32Z" fill="#2C3B48"/>
<path d="M660.82 563.32H655.82V568.32H654.18V563.32H649.18V561.68H654.18V556.68H655.82V561.68H660.82V563.32Z" fill="#2C3B48"/>
<path d="M698.82 563.32H693.82V568.32H692.18V563.32H687.18V561.68H692.18V556.68H693.82V561.68H698.82V563.32Z" fill="#2C3B48"/>
<path d="M736.82 563.32H731.82V568.32H730.18V563.32H725.18V561.68H730.18V556.68H731.82V561.68H736.82V563.32Z" fill="#2C3B48"/>
<path d="M774.82 563.32H769.82V568.32H768.18V563.32H763.18V561.68H768.18V556.68H769.82V561.68H774.82V563.32Z" fill="#2C3B48"/>
<path d="M812.82 563.32H807.82V568.32H806.18V563.32H801.18V561.68H806.18V556.68H807.82V561.68H812.82V563.32Z" fill="#2C3B48"/>
<path d="M318.82 599.32H313.82V604.32H312.18V599.32H307.18V597.68H312.18V592.68H313.82V597.68H318.82V599.32Z" fill="#2C3B48"/>
<path d="M356.82 599.32H351.82V604.32H350.18V599.32H345.18V597.68H350.18V592.68H351.82V597.68H356.82V599.32Z" fill="#2C3B48"/>
<path d="M394.82 599.32H389.82V604.32H388.18V599.32H383.18V597.68H388.18V592.68H389.82V597.68H394.82V599.32Z" fill="#2C3B48"/>
<path d="M432.82 599.32H427.82V604.32H426.18V599.32H421.18V597.68H426.18V592.68H427.82V597.68H432.82V599.32Z" fill="#2C3B48"/>
<path d="M470.82 599.32H465.82V604.32H464.18V599.32H459.18V597.68H464.18V592.68H465.82V597.68H470.82V599.32Z" fill="#2C3B48"/>
<path d="M508.82 599.32H503.82V604.32H502.18V599.32H497.18V597.68H502.18V592.68H503.82V597.68H508.82V599.32Z" fill="#2C3B48"/>
<path d="M546.82 599.32H541.82V604.32H540.18V599.32H535.18V597.68H540.18V592.68H541.82V597.68H546.82V599.32Z" fill="#2C3B48"/>
<path d="M584.82 599.32H579.82V604.32H578.18V599.32H573.18V597.68H578.18V592.68H579.82V597.68H584.82V599.32Z" fill="#2C3B48"/>
<path d="M622.82 599.32H617.82V604.32H616.18V599.32H611.18V597.68H616.18V592.68H617.82V597.68H622.82V599.32Z" fill="#2C3B48"/>
<path d="M660.82 599.32H655.82V604.32H654.18V599.32H649.18V597.68H654.18V592.68H655.82V597.68H660.82V599.32Z" fill="#2C3B48"/>
<path d="M698.82 599.32H693.82V604.32H692.18V599.32H687.18V597.68H692.18V592.68H693.82V597.68H698.82V599.32Z" fill="#2C3B48"/>
<path d="M736.82 599.32H731.82V604.32H730.18V599.32H725.18V597.68H730.18V592.68H731.82V597.68H736.82V599.32Z" fill="#2C3B48"/>
<path d="M774.82 599.32H769.82V604.32H768.18V599.32H763.18V597.68H768.18V592.68H769.82V597.68H774.82V599.32Z" fill="#2C3B48"/>
<path d="M812.82 599.32H807.82V604.32H806.18V599.32H801.18V597.68H806.18V592.68H807.82V597.68H812.82V599.32Z" fill="#2C3B48"/>
<path d="M318.82 635.32H313.82V640.32H312.18V635.32H307.18V633.68H312.18V628.68H313.82V633.68H318.82V635.32Z" fill="#2C3B48"/>
<path d="M356.82 635.32H351.82V640.32H350.18V635.32H345.18V633.68H350.18V628.68H351.82V633.68H356.82V635.32Z" fill="#2C3B48"/>
<path d="M394.82 635.32H389.82V640.32H388.18V635.32H383.18V633.68H388.18V628.68H389.82V633.68H394.82V635.32Z" fill="#2C3B48"/>
<path d="M432.82 635.32H427.82V640.32H426.18V635.32H421.18V633.68H426.18V628.68H427.82V633.68H432.82V635.32Z" fill="#2C3B48"/>
<path d="M470.82 635.32H465.82V640.32H464.18V635.32H459.18V633.68H464.18V628.68H465.82V633.68H470.82V635.32Z" fill="#2C3B48"/>
<path d="M508.82 635.32H503.82V640.32H502.18V635.32H497.18V633.68H502.18V628.68H503.82V633.68H508.82V635.32Z" fill="#2C3B48"/>
<path d="M546.82 635.32H541.82V640.32H540.18V635.32H535.18V633.68H540.18V628.68H541.82V633.68H546.82V635.32Z" fill="#2C3B48"/>
<path d="M584.82 635.32H579.82V640.32H578.18V635.32H573.18V633.68H578.18V628.68H579.82V633.68H584.82V635.32Z" fill="#2C3B48"/>
<path d="M622.82 635.32H617.82V640.32H616.18V635.32H611.18V633.68H616.18V628.68H617.82V633.68H622.82V635.32Z" fill="#2C3B48"/>
<path d="M660.82 635.32H655.82V640.32H654.18V635.32H649.18V633.68H654.18V628.68H655.82V633.68H660.82V635.32Z" fill="#2C3B48"/>
<path d="M698.82 635.32H693.82V640.32H692.18V635.32H687.18V633.68H692.18V628.68H693.82V633.68H698.82V635.32Z" fill="#2C3B48"/>
<path d="M736.82 635.32H731.82V640.32H730.18V635.32H725.18V633.68H730.18V628.68H731.82V633.68H736.82V635.32Z" fill="#2C3B48"/>
<path d="M774.82 635.32H769.82V640.32H768.18V635.32H763.18V633.68H768.18V628.68H769.82V633.68H774.82V635.32Z" fill="#2C3B48"/>
<path d="M812.82 635.32H807.82V640.32H806.18V635.32H801.18V633.68H806.18V628.68H807.82V633.68H812.82V635.32Z" fill="#2C3B48"/>
<path d="M318.82 671.32H313.82V676.32H312.18V671.32H307.18V669.68H312.18V664.68H313.82V669.68H318.82V671.32Z" fill="#2C3B48"/>
<path d="M356.82 671.32H351.82V676.32H350.18V671.32H345.18V669.68H350.18V664.68H351.82V669.68H356.82V671.32Z" fill="#2C3B48"/>
<path d="M394.82 671.32H389.82V676.32H388.18V671.32H383.18V669.68H388.18V664.68H389.82V669.68H394.82V671.32Z" fill="#2C3B48"/>
<path d="M432.82 671.32H427.82V676.32H426.18V671.32H421.18V669.68H426.18V664.68H427.82V669.68H432.82V671.32Z" fill="#2C3B48"/>
<path d="M470.82 671.32H465.82V676.32H464.18V671.32H459.18V669.68H464.18V664.68H465.82V669.68H470.82V671.32Z" fill="#2C3B48"/>
<path d="M508.82 671.32H503.82V676.32H502.18V671.32H497.18V669.68H502.18V664.68H503.82V669.68H508.82V671.32Z" fill="#2C3B48"/>
<path d="M546.82 671.32H541.82V676.32H540.18V671.32H535.18V669.68H540.18V664.68H541.82V669.68H546.82V671.32Z" fill="#2C3B48"/>
<path d="M584.82 671.32H579.82V676.32H578.18V671.32H573.18V669.68H578.18V664.68H579.82V669.68H584.82V671.32Z" fill="#2C3B48"/>
<path d="M622.82 671.32H617.82V676.32H616.18V671.32H611.18V669.68H616.18V664.68H617.82V669.68H622.82V671.32Z" fill="#2C3B48"/>
<path d="M660.82 671.32H655.82V676.32H654.18V671.32H649.18V669.68H654.18V664.68H655.82V669.68H660.82V671.32Z" fill="#2C3B48"/>
<path d="M698.82 671.32H693.82V676.32H692.18V671.32H687.18V669.68H692.18V664.68H693.82V669.68H698.82V671.32Z" fill="#2C3B48"/>
<path d="M736.82 671.32H731.82V676.32H730.18V671.32H725.18V669.68H730.18V664.68H731.82V669.68H736.82V671.32Z" fill="#2C3B48"/>
<path d="M774.82 671.32H769.82V676.32H768.18V671.32H763.18V669.68H768.18V664.68H769.82V669.68H774.82V671.32Z" fill="#2C3B48"/>
<path d="M812.82 671.32H807.82V676.32H806.18V671.32H801.18V669.68H806.18V664.68H807.82V669.68H812.82V671.32Z" fill="#2C3B48"/>
<g filter="url(#filter0_d_1118_1668)">
<rect x="162.676" width="600" height="600" rx="100" transform="rotate(15 162.676 0)" fill="url(#paint0_linear_1118_1668)"/>
</g>
<g style="mix-blend-mode:multiply">
<rect x="265.634" y="-33.366" width="602" height="602" rx="101" transform="rotate(30 265.634 -33.366)" stroke="#D4DCE3" stroke-width="2"/>
</g>
<defs>
<filter id="filter0_d_1118_1668" x="13.8337" y="14.4497" width="721.948" height="721.948" filterUnits="userSpaceOnUse" color-interpolation-filters="sRGB">
<feFlood flood-opacity="0" result="BackgroundImageFix"/>
<feColorMatrix in="SourceAlpha" type="matrix" values="0 0 0 0 0 0 0 0 0 0 0 0 0 0 0 0 0 0 127 0" result="hardAlpha"/>
<feOffset dy="8"/>
<feGaussianBlur stdDeviation="8"/>
<feColorMatrix type="matrix" values="0 0 0 0 0.105882 0 0 0 0 0.152941 0 0 0 0 0.192157 0 0 0 0.24 0"/>
<feBlend mode="normal" in2="BackgroundImageFix" result="effect1_dropShadow_1118_1668"/>
<feBlend mode="normal" in="SourceGraphic" in2="effect1_dropShadow_1118_1668" result="shape"/>
</filter>
<linearGradient id="paint0_linear_1118_1668" x1="462.676" y1="0" x2="462.676" y2="600" gradientUnits="userSpaceOnUse">
<stop stop-color="#00CAD2"/>
<stop offset="1" stop-color="#02898E"/>
</linearGradient>
</defs>
</svg>
